<svg width="34" height="34" fill="none" xmlns="http://www.w3.org/2000/svg"><path d="M24.556 0H9.444C4.23 0 0 4.23 0 9.444v15.112C0 29.77 4.23 34 9.444 34h15.112C29.77 34 34 29.77 34 24.556V9.444C34 4.23 29.77 0 24.556 0zM17 26.444c-5.215 0-9.444-4.229-9.444-9.444 0-5.215 4.229-9.444 9.444-9.444 5.215 0 9.444 4.229 9.444 9.444 0 5.215-4.229 9.444-9.444 9.444zM28.333 7.556a1.89 1.89 0 11.002-3.78 1.89 1.89 0 01-.002 3.78z" fill="#DA2D78"/><path d="M17 11.688a5.312 5.312 0 100 10.624 5.312 5.312 0 000-10.625z" fill="#DA2D78"/></svg>