<svg width="52" height="40" fill="none" xmlns="http://www.w3.org/2000/svg"><path d="M9.378 39.878v-2.6c.1-.9-.6-1.6-1.5-1.7h-.2c-.6 0-1.2.2-1.5.8-.3-.5-.8-.8-1.4-.8-.5 0-1 .2-1.2.6v-.5h-.9v4.2h.9v-2.4c-.1-.5.3-1 .9-1.1h.1c.6 0 .9.4.9 1.1v2.4h.9v-2.4c-.1-.5.3-1 .9-1.1h.1c.6 0 .9.4.9 1.1v2.4h1.1zm13.8-4.2h-1.5v-1.3h-1v1.3h-.9v.8h.9v1.9c0 1 .4 1.6 1.5 1.6.4 0 .8-.1 1.2-.3l-.3-.8c-.2.1-.5.2-.8.2-.5 0-.6-.3-.6-.7v-1.9h1.5v-.8zm7.8-.1c-.5 0-.9.2-1.1.6v-.5h-.9v4.2h.9v-2.4c0-.7.3-1.1.9-1.1.2 0 .4 0 .6.1l.3-.9h-.7zm-11.8.4c-.5-.3-1.1-.5-1.7-.4-1.1 0-1.8.5-1.8 1.3 0 .7.5 1.1 1.5 1.2l.4.1c.5.1.7.2.7.4s-.3.5-1 .5c-.5 0-1-.1-1.4-.4l-.4.7c.5.4 1.2.6 1.8.5 1.2 0 1.9-.6 1.9-1.4 0-.8-.6-1.1-1.5-1.3l-.4-.1c-.4 0-.7-.1-.7-.4 0-.3.3-.5.8-.5s.9.1 1.3.4l.5-.6zm24.6-.4c-.5 0-.9.2-1.1.6v-.5h-.9v4.2h.9v-2.4c0-.7.3-1.1.9-1.1.2 0 .4 0 .6.1l.3-.9h-.7zm-11.8 2.2c0 1.2.9 2.2 2.1 2.2h.2c.6 0 1.1-.2 1.5-.5l-.4-.7c-.3.2-.7.4-1.1.4-.7-.1-1.3-.7-1.2-1.5.1-.7.6-1.2 1.2-1.2.4 0 .8.1 1.1.4l.4-.7c-.4-.3-1-.5-1.5-.5-1.2-.1-2.2.8-2.3 2.1 0-.1 0-.1 0 0zm8.6 0v-2.1h-.9v.5c-.3-.4-.8-.6-1.3-.6-1.2.1-2.1 1.2-2 2.4.1 1.1.9 1.9 2 2 .5 0 1-.2 1.3-.6v.5h.9v-2.1zm-3.4 0c0-.7.6-1.2 1.3-1.2.7 0 1.2.6 1.2 1.3 0 .7-.6 1.2-1.3 1.2-.7 0-1.2-.5-1.2-1.3zm-11.2-2.2c-1.2 0-2.2 1-2.2 2.2 0 1.2 1 2.2 2.2 2.2.6 0 1.3-.2 1.7-.6l-.4-.7c-.3.3-.8.4-1.2.4-.6.1-1.2-.4-1.3-1h3.2v-.3c.1-1.1-.7-2.1-1.8-2.2h-.2zm0 .8c.6 0 1 .4 1.1 1h-2.2c.1-.6.6-1 1.1-1zm23.1 1.4v-3.8h-.9v2.2c-.3-.4-.8-.6-1.3-.6-1.2.1-2.1 1.2-2 2.4.1 1.1.9 1.9 2 2 .5 0 1-.2 1.3-.6v.5h.9v-2.1zm-3.4 0c0-.7.6-1.2 1.3-1.2.7 0 1.2.6 1.2 1.3 0 .7-.6 1.2-1.3 1.2-.7 0-1.3-.5-1.2-1.3zm-31.1 0v-2.1h-.9v.5c-.3-.4-.8-.6-1.3-.6-1.2.1-2.1 1.2-2 2.4.1 1.1.9 1.9 2 2 .5 0 1-.2 1.3-.6v.5h.9v-2.1zm-3.4 0c0-.7.6-1.2 1.3-1.2.7 0 1.2.6 1.2 1.3 0 .7-.6 1.2-1.3 1.2-.6 0-1.2-.5-1.2-1.3z" fill="#fff"/><path d="M32.778 3.378h-13.9v25.1h13.9v-25.1z" fill="#FF5F00"/><path d="M19.678 15.878c0-4.9 2.2-9.5 6.1-12.5-6.9-5.4-16.9-4.2-22.4 2.7-5.4 6.9-4.2 16.9 2.7 22.4 5.8 4.5 13.9 4.5 19.7 0-3.9-3-6.1-7.7-6.1-12.6z" fill="#EB001B"/><path d="M51.578 15.878c0 8.8-7.1 15.9-15.9 15.9-3.6 0-7-1.2-9.8-3.4 6.8-5.4 8-15.4 2.6-22.3-.8-1-1.7-1.9-2.7-2.7 6.9-5.4 17-4.2 22.4 2.7 2.2 2.8 3.4 6.3 3.4 9.8z" fill="#F79E1B"/></svg>