<svg width="155" height="26" fill="none" xmlns="http://www.w3.org/2000/svg"><path d="M145.633 5.464a5.473 5.473 0 00-1.304-2.537c-.813-.91-1.833-1.5-2.956-1.936-1.183-.454-2.413-.698-3.668-.833-.371-.04-.741-.075-1.112-.118-.164-.014-.324.052-.488-.037h-10.959c-.178.962-.359 1.922-.54 2.887-.437 2.398-.882 4.791-1.325 7.19-.39 2.134-.784 4.26-1.183 6.394-.167.908-.33 1.824-.494 2.726-.055.282-.058.288-.319.288h-12.048c-.086 0-.178.005-.29-.046.061-.308.112-.618.175-.925.19-1.049.391-2.097.586-3.16.046-.259.052-.259.299-.259h7.009c.382 0 .348.04.414-.33.264-1.494.54-2.982.807-4.464.035-.195.035-.201-.172-.201-.466-.006-.939 0-1.411 0h-5.676c-.319 0-.316 0-.258-.319.229-1.227.451-2.459.683-3.688.075-.403-.005-.35.42-.35 2.361-.007 4.728-.007 7.089-.007.069 0 .15-.005.216.006.158.015.201-.063.23-.2.123-.719.252-1.429.382-2.141.195-1.04.39-2.085.577-3.131.017-.083.04-.175.034-.267h-15.98c-.006.393-.112.772-.184 1.146-.209 1.235-.445 2.462-.675 3.697-.267 1.436-.537 2.884-.795 4.329-.316 1.73-.638 3.453-.954 5.18-.241 1.306-.477 2.608-.718 3.906-.04.207-.046.213-.267.213H95.44c-.241 0-.252-.018-.204-.247.328-1.79.664-3.585 1.003-5.372.319-1.72.638-3.442.954-5.16.336-1.824.678-3.636 1.017-5.452.129-.68.255-1.376.382-2.06.011-.06.008-.126.011-.186h-8.342c-.396 2.149-.79 4.289-1.19 6.44-.37 2.005-.735 4.01-1.102 6.019-.36 1.93-.718 3.866-1.078 5.796-.04.219-.046.224-.255.224H81.43c-.242 0-.242-.011-.193-.247.428-2.33.862-4.633 1.287-6.954.442-2.384.896-4.774 1.342-7.159.238-1.275.474-2.548.703-3.823.02-.092.052-.195.02-.296h-8.344c-.018.382-.121.753-.184 1.123-.204 1.138-.417 2.264-.626 3.398l-.802 4.332c-.279 1.523-.563 3.051-.839 4.576-.299 1.609-.594 3.206-.89 4.81-.066.358-.144.712-.196 1.07-.023.147-.089.179-.215.179-.055-.006-.11 0-.164 0-3.998 0-7.994 0-11.993-.006-.342 0-.382.086-.299-.37.233-1.25.454-2.497.678-3.746.05-.265.05-.265.336-.265h6.978c.075 0 .147-.006.218 0 .12.012.181-.04.201-.164.282-1.582.57-3.162.853-4.74.003-.005 0-.014-.002-.028-.1-.06-.21-.035-.316-.035h-6.952c-.342 0-.348 0-.287-.324.235-1.296.474-2.585.71-3.881.025-.14.077-.201.232-.195.316.008.632 0 .954 0h6.405c.064 0 .127-.006.193.005.146.015.204-.06.23-.2.083-.512.18-1.018.276-1.526.227-1.258.456-2.51.683-3.769.015-.08.015-.16.023-.241H21.767c-.052.488-.161.962-.247 1.442-.32 1.746-.638 3.502-.957 5.24-.281 1.536-.56 3.07-.839 4.604-.227 1.244-.46 2.49-.686 3.735-.015.083-.035.16-.049.25-.086 0-.086-.064-.104-.107-1.005-2.757-2.007-5.52-3.013-8.281-.807-2.218-1.62-4.427-2.433-6.645-.026-.072-.043-.155-.066-.232h-8.67c-.123.649-.25 1.298-.37 1.947-.388 2.1-.773 4.206-1.16 6.3-.391 2.117-.785 4.223-1.175 6.337-.371 2.02-.739 4.044-1.112 6.064l-.767 4.162c-.032.09-.055.167-.118.224.003.08-.032.21.138.17.034-.017.072 0 .11 0h8.097c-.049-.147-.006-.282.02-.417.279-1.565.552-3.14.83-4.71.302-1.696.61-3.388.91-5.082.282-1.598.561-3.18.84-4.772.043-.23.086-.457.123-.69.092-.005.086.061.1.11.374 1.069.745 2.143 1.112 3.217l2.724 7.891c.47 1.376.948 2.744 1.419 4.122.031.107.086.199.08.316h29.668c.02-.399.121-.778.19-1.151.296-1.63.6-3.27.9-4.898l.895-4.838c.265-1.427.526-2.858.787-4.28.25-1.359.506-2.709.756-4.065.04-.224.023-.232.273-.232h4.09c.038 0 .072.005.11.005.109-.011.146.05.132.147-.046.261-.087.523-.135.781-.394 2.135-.79 4.275-1.187 6.412-.39 2.1-.781 4.208-1.169 6.308-.267 1.436-.528 2.867-.79 4.303-.092.506-.18 1.006-.27 1.503h77.876c.018-.388.118-.759.181-1.138.224-1.255.454-2.513.684-3.769.316-1.729.641-3.456.959-5.185.124-.666.242-1.341.365-2.008.092.009.081.087.095.144a1307.19 1307.19 0 011.686 5.659c.615 2.063 1.227 4.116 1.833 6.173a.796.796 0 01.023.112h8.296c-.296-.781-.577-1.571-.879-2.347-.919-2.464-1.85-4.926-2.772-7.38-.118-.298-.112-.298.198-.364.773-.161 1.54-.342 2.264-.658 1.999-.888 3.3-2.376 3.915-4.476a9.6 9.6 0 00.333-2.278 8.164 8.164 0 00-.178-2.214zm-104.223.5c-.06.416-.144.83-.216 1.24-.23 1.259-.465 2.531-.7 3.795-.262 1.434-.532 2.867-.8 4.303-.238 1.313-.48 2.62-.718 3.933-.043.241-.043.247-.295.247H26.573c-.072 0-.147.011-.239-.04.184-1.014.368-2.008.549-3.002.069-.36.135-.718.2-1.072.05-.27.047-.27.323-.27h7.279c.365 0 .37 0 .44-.373.246-1.373.493-2.74.743-4.122.02-.115.043-.224.06-.345.027-.175.024-.175-.154-.184h-7.309c-.347 0-.347 0-.29-.33.216-1.238.428-2.48.647-3.723.049-.284.049-.29.336-.29h12.053c.224.006.239.02.199.233zm96.028 3.64c-.316.798-.891 1.352-1.661 1.717-.566.264-1.177.393-1.807.468-.505.07-1.014.058-1.513.06h-1.124c-.281-.002-.281-.002-.229-.267l.301-1.634c.276-1.468.54-2.933.816-4.404.072-.42.072-.42.5-.42.58 0 1.16-.008 1.735.052.554.058 1.091.161 1.611.374a2.587 2.587 0 011.621 2.427c.017.555-.035 1.1-.25 1.626zm14.187 12.061c.104-.029.181-.046.262-.072.741-.284.936-1.23.376-1.79-.212-.212-.477-.28-.767-.28-.6-.02-1.198.045-1.792.062-.38.012-.38.012-.359.4 0 .037.005.069.008.106.032.6.061 1.19.095 1.784.023.465.037.928.06 1.387.012.325.018.313.336.302.227-.006.224-.035.219-.236-.018-.382-.04-.758-.055-1.137-.006-.112-.063-.253.006-.342.072-.098.218-.029.33-.058.466-.1.83.04 1.123.429.262.344.509.698.767 1.05.052.061.084.162.176.162.195 0 .402.06.62-.07-.445-.588-.778-1.243-1.405-1.697zm-.367-.4c-.331.03-.667.012-1.003.053h-.08c-.201 0-.19-.006-.216-.202-.026-.27-.003-.54-.046-.81-.04-.25-.011-.261.259-.273.299-.017.597 0 .896-.057.167-.023.325 0 .483.052a.593.593 0 01.459.54.589.589 0 01-.336.577c-.129.066-.27.1-.416.12z" fill="#83BA3B"/><path d="M154.481 20.502a3.717 3.717 0 00-4.249-2.657c-1.936.339-3.292 2.177-3.013 4.136.215 1.511 1.077 2.514 2.496 3.05.17.061.353.073.511.17h1.307c.299-.112.612-.163.897-.298 1.077-.512 1.769-1.342 2.079-2.494.038-.143 0-.296.078-.42v-.982c-.086-.158-.06-.336-.106-.505zm-3.591 4.065c-1.499-.006-3.048-1.227-3.051-3.057a3.04 3.04 0 013.065-3.05c1.756 0 3.086 1.496 3.04 3.05.066 1.568-1.351 3.068-3.054 3.056z" fill="#83BA3B"/></svg>