<svg width="87" height="38" fill="none" xmlns="http://www.w3.org/2000/svg"><path d="M35.139 35.726c-.166-.452-.466-.76-.683-1.16-.528-.688-1.149-1.284-1.77-1.879-.217-.072-.31-.277-.517-.36-.134-.174-.352-.266-.528-.4a10.503 10.503 0 00-1.128-.718c-.745-.473-1.666-.77-2.576-1.078a30.653 30.653 0 00-3.094-.555c-1.066-.154-2.131-.297-2.939-.718-.465-.134-.807-.39-1.21-.596-.373-.246-.776-.451-1.087-.76-.382-.225-.62-.605-.92-.913-.104-.205-.28-.329-.363-.554-.103-.042-.134-.165-.196-.237-.073-.082-.073-.246-.197-.277-.062.421-.041.924 0 1.355.052.185.073.411.124.596.031.164.187.431.125.554-3.229-.164-5.588-1.18-7.637-2.515-1.014-.667-1.883-1.479-2.69-2.351-.352-.483-.735-.945-1.045-1.479-.32-.523-.59-1.119-.88-1.673-.476-1.201-.92-2.433-1.086-3.942-.217-1.407-.166-3.203.155-4.507.114-.719.352-1.324.559-1.95.134-.288.28-.576.403-.873.176-.247.27-.586.487-.801.59-1.099 1.469-1.92 2.37-2.71a10.018 10.018 0 013.414-1.633c1.283-.287 3.032-.339 4.418-.04 2.814.574 4.936 1.827 6.715 3.428 1.8 1.57 3.187 3.563 4.14 5.985.982 2.3 1.324 5.883.444 8.49-.362-.205-.724-.4-1.086-.595-.435-.123-.859-.267-1.366-.318-.61-.01-1.21 0-1.604.195.797-.082 1.438.134 1.935.318.29.113.455.185.683.319.445.256.838.492 1.17.841.94.822 1.613 1.91 1.934 3.347 0 .041.052.031.042-.04.041-.011.062-.042.082-.083.052-.062.114-.123.166-.195.103-.123.207-.246.28-.4a5.21 5.21 0 00.558-.842c.383-.555.673-1.191 1.004-1.797a18.98 18.98 0 001.324-4.27c.58-3.512-.114-6.838-1.324-9.292-1.242-2.474-2.98-4.455-5.226-5.944-2.266-1.478-4.915-2.567-8.557-2.67-.02-.071-.052.011-.124 0-1.925-.06-3.477.206-5.018.596-.714.236-1.46.442-2.09.76-.725.236-1.304.626-1.967.914-.238.226-.6.338-.848.554-.32.154-.559.4-.88.554-.517.452-1.065.853-1.572 1.315-.497.451-.932.965-1.408 1.437-.072.164-.196.277-.32.4a1.34 1.34 0 01-.321.4c-.052.185-.217.257-.28.442-.134.103-.165.308-.32.4-.135.329-.373.565-.528.873-.186.298-.331.626-.517.914-.29.667-.6 1.314-.838 2.033a14.16 14.16 0 00-.6 2.238c-.156.749-.3 1.724-.28 2.515-.103.287-.02.821 0 1.16 0 .062-.041.082-.041.123 0 .38.103.842.124 1.078.083.873.238 1.684.486 2.392.155.79.486 1.407.724 2.115.363.595.611 1.304 1.046 1.838.32.626.776 1.119 1.21 1.632.466.493.931.996 1.49 1.396 1.025.883 2.225 1.592 3.539 2.197 2.452 1.18 6.115 1.95 9.406 1.756.838-.113 1.686-.216 2.452-.4.704-.257 1.521-.411 2.37-.514 1.934-.123 3.61.052 5.1.483 1.511.4 2.815 1.006 3.943 1.796.6.35 1.097.801 1.604 1.232.517.442.931.986 1.407 1.479.062.184.186.318.28.482.124.134.061.442.361.4.187-.184-.03-.451-.04-.677-.187-.195-.229-.452-.373-.616z" fill="#fff"/><path d="M27.628 24.802c-.042 0-.052.031-.083.041-.073.154-.042.4 0 .555.217.441.29 1.016.766 1.2.227-.071.207-.4.196-.718-.103-.39-.248-.739-.486-.996-.166-.061-.28-.164-.393-.082zm-2.815 1.12c0-.021-.03-.042-.041 0-.393-.052-.528.164-.724.318-.342.893.207 1.765 1.169 1.755.383-.092.62-.339.683-.76-.052-.749-.373-1.232-1.087-1.314zm23.199-2.844c.155.646.486 1.108.858 1.54.373.43.808.79 1.335 1.057a6.381 6.381 0 001.656.74c.3.102.59.225.962.266.259.144.57.216.59.585-.01.442-.31.606-.693.688-.383-.082-.86-.072-1.18-.216-.807-.092-1.459-.349-2.142-.585a9.64 9.64 0 01-3.311-2.125c-.186-.308-.445-.554-.642-.852-.196-.298-.33-.657-.538-.955-1.593-.205-2.68-.924-3.631-1.755-.88-.996-1.584-2.187-1.873-3.768-.342-1.52-.238-3.419.165-4.887.88-2.844 2.722-4.733 6.198-4.99.963.032 1.8.144 2.566.432.776.277 1.511.79 2.09 1.324.052.041.073.052.104.103.124.174.424.42.59.636.03.041.02.113.051.165.063.092.156.133.218.215.03.052.02.113.052.154.041.062.093.154.155.267.02.041.093.072.103.103.093.174.135.39.218.585.082.205.196.38.269.585.206.606.341 1.325.424 2.064.207 2.135-.218 4.045-1.014 5.462-.373.739-.89 1.344-1.5 1.858-.56.585-1.325.934-2.08 1.303zM45.446 9.71c-.466.03-.745.246-1.128.37-.249.225-.56.4-.745.687-.31.175-.394.565-.642.79a9.831 9.831 0 00-.538 1.756 12.639 12.639 0 00-.217 2.125c-.01 1.828.383 3.645 1.117 4.723.435.524.963.955 1.604 1.273.373.03.662.154 1.066.164.227-.082.6 0 .745-.164.331.02.403-.195.693-.216.155-.154.32-.277.538-.37.197-.215.383-.43.59-.636.103-.154.165-.37.32-.482.932-1.766 1.036-5 .425-7.053a6.246 6.246 0 00-.91-1.859c-.394-.4-.86-.739-1.387-1.006-.424-.092-.828-.205-1.387-.154-.03 0-.062.01-.051.052h-.093zm11.288-1.489c.838.03 1.822-.072 2.566.051.166.257.104.565.104.853.062 3.89 0 8.069 0 12.042 0 .318.01.647 0 .955-.01.267.062.554-.104.8-.372.093-.91.052-1.386.052-.507 0-1.004.072-1.335-.103a375.285 375.285 0 010-14.486c.02-.082.073-.133.155-.164zm6.416 0h2.514c.228.308.3.77.373 1.222.755 2.854 1.5 5.718 2.193 8.644.166.02.114-.175.166-.267.072-.072.03-.246.103-.318.031-.236.176-.36.166-.637.186-.359.248-.852.424-1.221.217-.863.507-1.663.755-2.495.238-.862.56-1.643.745-2.546.352-.729.435-1.725.86-2.382h1.065c.383.719.528 1.674.859 2.444.217.862.517 1.642.745 2.494.528 1.653 1.076 3.285 1.552 4.99.217-.319.217-.852.372-1.222.093-.421.176-.852.321-1.222.414-1.683.807-3.377 1.283-4.99.176-.841.352-1.703.642-2.443a8.714 8.714 0 012.193 0c.052.627-.238 1.304-.424 1.859-.103.677-.352 1.2-.486 1.858-.383 1.201-.673 2.474-1.066 3.665-.3 1.273-.704 2.443-1.014 3.716-.207.585-.352 1.232-.538 1.859-.207.575-.28 1.283-.59 1.755h-1.5c-.383-.667-.518-1.57-.859-2.279-.745-2.34-1.573-4.59-2.297-6.95-.248.256-.248.78-.424 1.108-.114.4-.228.801-.373 1.17-.207.812-.517 1.5-.693 2.331-.3.73-.517 1.54-.745 2.341-.31.698-.424 1.591-.807 2.228-.393.123-1.014.02-1.5.051-.373-.42-.415-1.18-.642-1.755-.176-.596-.3-1.253-.528-1.807-.29-1.294-.724-2.433-1.014-3.717-.383-1.19-.714-2.433-1.066-3.665-.196-.585-.341-1.211-.538-1.807-.093-.636-.527-1.211-.372-1.91.02-.05.083-.081.145-.102zm21.119 0c.838.03 1.81-.072 2.566.051.186.555.103 1.15.103 1.746v11.139c0 .605.072 1.19-.103 1.755-.58.062-1.428.093-2.142.052-.207-.01-.456.05-.59-.103-.186-.554-.103-1.14-.103-1.756V10.08c0-.667-.063-1.314.103-1.755a.348.348 0 01.166-.103z" fill="#fff"/></svg>