<svg width="82" height="28" fill="none" xmlns="http://www.w3.org/2000/svg"><path d="M64.755 2.638L71.35 1.45v25.585h-6.594V2.638zm10.55 0v24.398H81.9V1.451l-6.594 1.187zM55.524 27.036h6.594V8.572h-6.594v18.464zM10.42 11.078c-.923 0-2.902-.132-2.902-1.978 0-2.11 2.902-2.11 3.957-2.11 1.846 0 4.352.527 6.067 1.055l1.978.66h.264V2.77l-.264-.132c-2.11-.66-4.616-1.451-8.968-1.451C2.9 1.451.13 5.935.13 9.759c0 2.242.924 7.386 9.76 8.045.792 0 2.77.132 2.77 1.979 0 1.582-1.846 2.373-4.616 2.373-3.033 0-5.275-.79-7.913-1.45v6.067c2.638.659 5.803 1.055 9.364 1.055 7.517 0 10.946-4.22 10.946-8.441 0-4.748-3.693-7.781-10.023-8.309zm41.016-2.901c-6.33.132-9.1 3.033-9.1 8.572v10.287h6.594v-8.309c0-3.297 0-4.747 3.956-4.88V8.31c0-.264-1.45-.132-1.45-.132zm-18.332.395c-.132 0-1.319 3.298-3.957 6.463V1.45L22.552 2.9v24.135h6.594v-7.122c2.638 3.034 3.166 7.122 3.166 7.122h8.44c-.791-2.637-4.484-9.495-4.484-9.495 3.297-4.089 4.748-8.969 4.88-8.969h-8.045zM58.82 6.594a3.265 3.265 0 003.297-3.297A3.265 3.265 0 0058.82 0a3.265 3.265 0 00-3.297 3.297 3.265 3.265 0 003.297 3.297z" fill="#B73091"/><path d="M67.393 2.11l3.956-.66v25.586h-6.594L67.393 2.11zm10.287.132l-2.374 24.794H81.9V1.451l-4.22.791zM55.523 27.036h6.594V8.572h-2.77l-3.824 18.464zM.132 9.76c0 2.242.923 7.386 9.627 8.045.792 0 3.957.132 3.957 1.979 0 1.582-3.165 2.373-5.803 2.373-3.033 0-5.275-.79-7.913-1.45v6.067c2.638.659 5.803 1.055 9.364 1.055 7.517 0 10.946-4.22 10.946-8.441 0-4.748-3.693-7.781-10.023-8.309-.923 0-2.77-.132-2.77-1.978 0-2.11 2.902-2.11 3.957-2.11 1.846 0 4.352.527 6.067 1.055l1.978.66h.264V2.77l-.264-.132c-2.11-.66-4.616-1.451-8.968-1.451L.13 9.759zm42.203 6.726v10.551h6.594v-8.309c0-3.297 0-4.747 3.956-4.88V8.31c0-.132-1.45-.132-1.45-.132l-9.1 8.308zm-19.783 10.55h6.594v-7.122c2.638 3.034 5.671 7.122 5.671 7.122h5.803c-.791-2.637-4.484-9.495-4.484-9.495 3.297-4.089 4.748-8.969 4.88-8.969h-3.957c-.131 0-5.275 3.298-7.913 6.463V1.978l-6.594 25.058zM58.82 6.594a3.265 3.265 0 003.297-3.297A3.265 3.265 0 0058.82 0" fill="#862165"/></svg>