<svg width="81" height="26" fill="none" xmlns="http://www.w3.org/2000/svg"><path d="M34.7 25.6h-6.5l4-25.1h6.5l-4 25.1zM58.2 1.1C56.3.4 54.4 0 52.4 0 46 0 41.5 3.4 41.5 8.3c0 3.6 3.2 5.6 5.7 6.8 2.5 1.2 3.4 2 3.4 3.1 0 1.7-2 2.5-3.9 2.5-2.1.1-4.2-.4-6.1-1.3l-1-.4-.9 5.6c2.3.9 4.8 1.3 7.2 1.3 6.8 0 11.2-3.4 11.3-8.6 0-2.9-1.7-5-5.4-6.8-2.3-1.1-3.7-1.9-3.7-3.1 0-1.2 1.2-2.2 3.7-2.2 1.7 0 3.3.3 4.8 1l.6.3 1-5.4zm8.6 15.6l2.6-7 .8-2.4.4 2.2s1.2 6 1.5 7.2h-5.3zm8-16.2h-5c-1.5-.2-2.9.7-3.4 2.1l-9.6 23h6.8l1.4-3.8h8.3c.2.9.8 3.8.8 3.8h6L74.8.5zm-52 0l-6.3 17.1-.7-3.5c-1.6-4.5-4.8-8.2-9-10.5l5.8 21.9h6.9L29.7.5h-6.9z" fill="#00579F"/><path d="M10.5.5H.1L0 1c8.1 2.1 13.5 7.1 15.7 13.1L13.5 2.6c-.4-1.6-1.5-2-3-2.1z" fill="#FAA61A"/></svg>