<svg width="53" height="30" fill="none" xmlns="http://www.w3.org/2000/svg"><path d="M52.303 27.093a3.597 3.597 0 00-.179-.342c-.912-1.643-2.655-3.66-5.229-6.05l-.054-.055-.027-.027-.028-.028h-.027c-1.168-1.113-1.908-1.862-2.218-2.245-.566-.73-.693-1.47-.383-2.218.218-.566 1.04-1.76 2.463-3.586.749-.967 1.342-1.743 1.78-2.327 3.157-4.198 4.526-6.88 4.106-8.049l-.163-.273c-.11-.164-.392-.314-.848-.451-.457-.137-1.04-.16-1.753-.069l-7.884.055c-.128-.046-.31-.041-.548.014l-.356.082-.137.068-.109.083a1.2 1.2 0 00-.301.287c-.11.136-.2.297-.273.48a44.708 44.708 0 01-2.93 6.159 58.374 58.374 0 01-1.862 2.943c-.565.83-1.04 1.442-1.423 1.834-.384.392-.73.707-1.04.944-.31.238-.548.338-.712.302a24.15 24.15 0 01-.466-.11 1.822 1.822 0 01-.616-.67c-.155-.284-.26-.64-.314-1.069a11.523 11.523 0 01-.096-1.108 23.2 23.2 0 01.014-1.315c.018-.566.027-.949.027-1.15 0-.693.014-1.446.04-2.258.028-.812.05-1.456.07-1.93.018-.474.027-.976.027-1.506s-.033-.944-.096-1.245a4.305 4.305 0 00-.287-.877A1.475 1.475 0 0029.91.73a3.164 3.164 0 00-.917-.37c-.968-.218-2.2-.337-3.696-.355-3.395-.037-5.576.183-6.544.657-.383.2-.73.475-1.04.821-.328.402-.374.621-.137.657 1.095.164 1.87.557 2.327 1.177l.164.329c.128.237.256.657.384 1.26.127.602.21 1.268.246 1.997.091 1.333.091 2.474 0 3.423a40.729 40.729 0 01-.26 2.217c-.082.53-.206.958-.37 1.287-.164.328-.273.53-.328.602a.47.47 0 01-.137.137 2.05 2.05 0 01-.74.137c-.255 0-.565-.128-.93-.383a6.569 6.569 0 01-1.136-1.054c-.392-.448-.835-1.073-1.328-1.876a32.72 32.72 0 01-1.533-2.847l-.438-.794a68.313 68.313 0 01-1.122-2.231 43.066 43.066 0 01-1.26-2.834c-.146-.383-.365-.675-.657-.876l-.137-.082a1.875 1.875 0 00-.438-.233 2.94 2.94 0 00-.63-.178l-7.5.055c-.767 0-1.287.173-1.561.52l-.11.164C.028 2.148 0 2.294 0 2.495c0 .2.055.447.164.739a90.34 90.34 0 003.573 7.446c1.287 2.391 2.405 4.317 3.353 5.776a68.182 68.182 0 002.902 4.134c.986 1.296 1.638 2.127 1.958 2.491.32.366.57.64.753.822l.684.657c.438.438 1.082.962 1.93 1.574a32.916 32.916 0 002.82 1.807c1.032.593 2.231 1.077 3.6 1.45 1.37.375 2.702.525 3.997.453h3.149c.638-.055 1.122-.256 1.45-.603l.11-.137c.073-.109.142-.278.205-.506a2.78 2.78 0 00.096-.753 9.023 9.023 0 01.177-2.121c.137-.63.292-1.104.466-1.424a3.5 3.5 0 01.589-.807c.218-.219.374-.351.466-.397A1.78 1.78 0 0132.66 23c.438-.146.954-.004 1.547.425.594.429 1.15.959 1.67 1.588.52.63 1.146 1.337 1.876 2.121.73.785 1.369 1.369 1.916 1.753l.547.328c.366.22.84.42 1.425.603.583.182 1.094.228 1.532.136l7.008-.109c.694 0 1.233-.115 1.616-.342.383-.229.61-.48.684-.753a2.12 2.12 0 00.014-.931c-.065-.347-.129-.589-.192-.726z" fill="#0288D1"/></svg>