<svg width="54" height="30" fill="none" xmlns="http://www.w3.org/2000/svg"><path d="M52.797 27.093a3.62 3.62 0 00-.178-.342c-.912-1.643-2.656-3.66-5.229-6.05l-.054-.055-.028-.027-.027-.028h-.028c-1.168-1.113-1.907-1.862-2.217-2.245-.567-.73-.694-1.47-.384-2.218.219-.566 1.04-1.76 2.464-3.586.749-.967 1.342-1.743 1.78-2.327 3.157-4.198 4.526-6.88 4.106-8.049l-.163-.273c-.11-.164-.392-.314-.848-.451-.457-.137-1.041-.16-1.753-.069l-7.884.055c-.128-.046-.31-.041-.548.014l-.356.082-.137.068-.11.083c-.09.054-.19.15-.3.287a1.88 1.88 0 00-.274.48A44.696 44.696 0 0137.7 8.6a58.308 58.308 0 01-1.861 2.943c-.566.83-1.04 1.442-1.423 1.834-.384.392-.73.707-1.041.944-.31.238-.547.338-.711.302-.165-.037-.32-.074-.466-.11a1.82 1.82 0 01-.616-.67c-.155-.284-.26-.64-.315-1.069a11.855 11.855 0 01-.096-1.108 23.2 23.2 0 01.014-1.315c.02-.566.028-.949.028-1.15 0-.693.013-1.446.04-2.258.028-.812.05-1.456.069-1.93.018-.474.027-.976.027-1.506s-.032-.944-.096-1.245a4.365 4.365 0 00-.286-.877 1.475 1.475 0 00-.562-.657 3.163 3.163 0 00-.917-.37c-.968-.216-2.2-.335-3.697-.353-3.395-.037-5.576.183-6.543.657-.383.2-.73.475-1.04.821-.329.402-.375.621-.137.657 1.095.164 1.87.557 2.326 1.177l.165.329c.128.237.256.657.383 1.26.128.602.21 1.268.247 1.997.09 1.333.09 2.474 0 3.423a41.766 41.766 0 01-.26 2.217c-.083.53-.206.958-.37 1.287-.165.328-.274.53-.329.602a.47.47 0 01-.136.137 2.05 2.05 0 01-.74.137c-.255 0-.566-.128-.93-.383a6.569 6.569 0 01-1.136-1.054c-.393-.448-.836-1.073-1.329-1.876a32.72 32.72 0 01-1.532-2.847l-.438-.794a68.108 68.108 0 01-1.123-2.231 42.96 42.96 0 01-1.26-2.834c-.145-.383-.364-.675-.656-.876l-.137-.082a1.874 1.874 0 00-.438-.233 2.94 2.94 0 00-.63-.178l-7.501.055c-.767 0-1.287.173-1.56.52l-.11.164c-.055.092-.082.238-.082.439 0 .2.054.447.164.739A90.344 90.344 0 004.23 10.68c1.287 2.391 2.405 4.317 3.354 5.776a68.195 68.195 0 002.902 4.134c.986 1.296 1.638 2.127 1.957 2.491.32.366.57.64.753.822l.685.657c.438.438 1.081.962 1.93 1.574a32.902 32.902 0 002.82 1.807c1.031.593 2.23 1.077 3.6 1.45 1.369.375 2.701.525 3.997.453h3.148c.639-.055 1.123-.256 1.451-.603l.11-.137c.073-.109.141-.278.204-.506.064-.228.096-.48.096-.753a9.018 9.018 0 01.178-2.121c.136-.63.292-1.104.466-1.424a3.53 3.53 0 01.588-.807c.22-.219.375-.351.467-.397a1.78 1.78 0 01.218-.096c.438-.146.953-.004 1.547.425a9.09 9.09 0 011.67 1.588c.52.63 1.145 1.337 1.875 2.121.73.785 1.37 1.369 1.917 1.753l.547.328c.366.22.84.42 1.424.603.583.182 1.094.228 1.533.136l7.008-.109c.693 0 1.233-.115 1.615-.342.384-.229.611-.48.685-.753.073-.274.077-.584.014-.931-.065-.347-.13-.589-.193-.726z" fill="#fff"/></svg>