<svg xmlns="http://www.w3.org/2000/svg" viewBox="0 0 432 150"><style>.J{fill:#fff}.K{fill-rule:evenodd}</style><path d="M123.1 146.3a2.54 2.54 0 01-2.04-1.03 2.53 2.53 0 01-.38-2.26l10.14-32.68h-7.58l-10.7 34.2a2.523 2.523 0 01-2.42 1.78h-27.8c-.8 0-1.56-.38-2.04-1.03a2.53 2.53 0 01-.38-2.26l9.7-31.07c.33-1.05 1.3-1.78 2.42-1.78h13.24l.4-1.3H92.53c-4.9 0-9.27-1.55-13.02-4.6-1.5-1.2-2.9-2.86-4.2-5.04-.46-.8-.47-1.76-.02-2.55s1.3-1.28 2.2-1.28h88c.8 0 1.56.4 2.04 1.03a2.53 2.53 0 01.38 2.26l-14.34 45.84a2.523 2.523 0 01-2.42 1.78H123.1z"/><path d="M165.5 97.92l-14.34 45.84H123.1l11.16-35.97h-12.88l-11.25 35.97h-27.8l9.7-31.07h15.1l1.98-6.36H92.53c-4.3 0-8.15-1.37-11.4-4.04-1.3-1.02-2.5-2.48-3.6-4.38h88m0-5.05h-88c-1.82 0-3.5.98-4.4 2.56s-.9 3.52.04 5.1c1.46 2.46 3.03 4.35 4.82 5.77a22.54 22.54 0 009.34 4.56c-.05.12-.1.24-.13.36l-9.7 31.07c-.48 1.54-.2 3.2.75 4.5a5.05 5.05 0 004.08 2.06h27.82c2.2 0 4.17-1.44 4.83-3.55l10.14-32.42h2.28l-9.12 29.4a5.08 5.08 0 00.76 4.51 5.05 5.05 0 004.08 2.06h28.07c2.2 0 4.17-1.44 4.83-3.55l14.34-45.84c.48-1.54.2-3.2-.75-4.5a5.014 5.014 0 00-4.08-2.08zm0 10.12z" class="J"/><path d="M251.2 146.3c-.8 0-1.56-.4-2.04-1.03a2.54 2.54 0 01-.38-2.26l9.7-31c.33-1.06 1.3-1.78 2.42-1.78h28c.8 0 1.56.4 2.04 1.03a2.53 2.53 0 01.38 2.26l-1.55 4.95h.16c6.87 0 8.24-2.9 8.68-5.1.14-.7.2-1.18.14-1.5-.1-1-.32-3.02-4.87-3.02H261.4c-4.9 0-9.28-1.55-13.02-4.6-1.5-1.2-2.92-2.9-4.18-5.05-.46-.8-.47-1.76-.02-2.54.45-.8 1.3-1.28 2.2-1.28h49.1c8.6 0 16.04.84 22.13 2.5 9.43 2.53 14.53 6.84 15.16 12.82.1.9.02 2.05-.08 3.17-2.1 12.24-17.07 18.1-45.8 18.1h-1.5l-4 12.57a2.52 2.52 0 01-2.4 1.77H251.2z"/><path d="M295.5 97.92c8.24 0 15.45.77 21.46 2.4 8.33 2.23 12.8 5.75 13.3 10.64.08.77 0 1.73-.1 2.67-1.8 10.48-16.3 15.8-43.27 15.8h-3.35L279 143.77h-27.82l9.7-31h28L286.3 121h3.6c6.52 0 10.22-2.4 11.16-7.13.17-.86.26-1.63.17-2.3-.26-2.4-1.72-5.23-7.38-5.23H261.4c-4.3 0-8.16-1.37-11.42-4.04-1.3-1.02-2.5-2.48-3.6-4.38h49.1m-6.6 14.86h.03m6.58-19.92h-49.1a5.07 5.07 0 00-4.4 2.55c-.9 1.58-.9 3.52.03 5.08 1.43 2.42 3.05 4.36 4.82 5.77 2.75 2.25 5.94 3.8 9.38 4.57a5.46 5.46 0 00-.16.43l-9.7 31c-.48 1.54-.2 3.2.75 4.5a5.06 5.06 0 004.08 2.07H279a5.07 5.07 0 004.83-3.53l3.43-10.8c29.93-.05 45.6-6.6 47.9-20 .02-.13.04-.26.05-.4.1-1.06.22-2.38.08-3.68-.75-7.1-6.48-12.16-17.03-15-6.28-1.72-13.95-2.58-22.77-2.58zm-1.72 18.54h.1c1.62 0 2.2.32 2.3.4 0 .02.03.12.05.32.01.05.01.24-.1.77-.16.8-.42 2.1-2.8 2.7l.3-.98c.22-.57.35-1.2.35-1.84 0-.47-.07-.93-.2-1.37z" class="J"/><path d="M338.68 146.3a2.54 2.54 0 01-2.04-1.03 2.53 2.53 0 01-.39-2.24l9.53-31.07c.33-1.06 1.3-1.8 2.42-1.8h11.35l.42-1.37H345.2c-4.9 0-9.26-1.52-12.93-4.53-1.4-1.1-2.75-2.74-4.15-5-.48-.78-.5-1.77-.06-2.57s1.3-1.3 2.2-1.3l69.2-.08c.98 0 1.88.57 2.3 1.46.42.9.28 1.94-.35 2.7l-7.98 9.53c-.48.57-1.2.9-1.94.9h-11.7l-10.7 34.62c-.33 1.06-1.3 1.8-2.42 1.8h-28z"/><path d="M399.46 97.84l-7.98 9.53H377.9l-11.25 36.4h-27.98l9.53-31.07h13.22l1.98-6.44h-18.2c-4.2 0-8.07-1.3-11.33-3.96-1.3-1.02-2.5-2.58-3.6-4.38l69.2-.08m0-5.07l-69.2.08a5.06 5.06 0 00-4.42 2.6c-.9 1.6-.85 3.57.12 5.13 1.56 2.5 3.1 4.37 4.76 5.68 3.56 2.9 7.9 4.63 12.63 4.98l-9.52 31.03c-.47 1.54-.2 3.2.77 4.5s2.47 2.05 4.07 2.05h27.98c2.22 0 4.18-1.45 4.84-3.57l10.15-32.83h9.83c1.5 0 2.92-.66 3.88-1.8l7.98-9.52c1.26-1.5 1.54-3.6.7-5.4-.82-1.77-2.6-2.9-4.58-2.9zm0 10.13z" class="J"/><path d="M208.18 147.15c-10.93 0-20.12-2-27.32-5.98-7.43-4.05-11.6-9.8-12.37-17.06-.1-.86-.1-1.64-.1-2.4a21.05 21.05 0 012.63-10.22 2.52 2.52 0 012.22-1.32h19.25l.4-1.3h-9.1c-4.87 0-9.35-1.6-12.96-4.63-1.47-1.17-2.9-2.88-4.16-5.03-.46-.8-.47-1.76-.02-2.54.45-.8 1.3-1.28 2.2-1.28h30.82c3.1-.48 6.83-.74 10.7-.74a88.78 88.78 0 016.47.23c8.07.64 14.85 2.3 20.2 5 7.6 3.85 11.68 9.34 12.46 16.76.3 3-.02 6.02-.96 9.02-1.92 6.13-6.4 11.24-13.36 15.18-7.33 4.2-16.42 6.32-27 6.32zm-1.63-15.36c1.6 0 6.48 0 9.7-10.1.9-2.9 1.24-5.5 1-7.72-.3-3-1.6-4.54-4.1-4.88-.86-.1-1.23-.14-1.55-.14-1.97 0-7.96 0-10.3 12.7-.42 2.4-.53 4.22-.33 5.5.25 2.86 1.62 4.26 4.3 4.56.01-.01.03-.01.07-.01.12.01 1.2.08 1.2.08z"/><path d="M210.38 97.18l6.3.22c7.64.6 14.08 2.15 19.23 4.73 6.78 3.44 10.4 8.24 11.08 14.76.26 2.58 0 5.24-.86 8-1.72 5.5-5.84 10.13-12.2 13.73-7.04 4.03-15.7 6-25.76 6-10.48 0-19.23-1.88-26.1-5.66-6.78-3.7-10.4-8.67-11.08-15.1-.08-.77-.08-1.46-.08-2.15 0-3.17.77-6.17 2.32-9h21.12l1.98-6.36H183.8c-4.3 0-8.16-1.37-11.34-4.04-1.3-1.02-2.5-2.48-3.6-4.38h30.82c3.4-.48 6.98-.72 10.7-.72m-3.83 37.14c5.58 0 9.62-4.04 12.1-11.85 1.03-3.34 1.37-6.27 1.12-8.75-.5-5.23-3.7-6.78-6.27-7.13-.78-.08-1.37-.17-1.9-.17-6.7 0-11 4.98-12.8 14.76-.43 2.5-.6 4.64-.34 6.36.34 3.95 2.66 6.27 6.52 6.7.5 0 1.03.08 1.54.08m3.83-42.2c-3.86 0-7.57.25-11.06.74h-30.46a5.07 5.07 0 00-4.4 2.55c-.9 1.58-.9 3.52.03 5.08 1.43 2.42 3.05 4.36 4.82 5.77a22.37 22.37 0 002.25 1.65 5.11 5.11 0 00-2.77 2.35c-1.95 3.57-2.94 7.42-2.94 11.43 0 .86.01 1.73.1 2.7.87 8.14 5.47 14.54 13.7 19 7.55 4.16 17.16 6.28 28.52 6.28 11.03 0 20.54-2.24 28.27-6.67 7.5-4.26 12.4-9.86 14.5-16.62 1.04-3.32 1.4-6.7 1.06-10-.87-8.26-5.52-14.57-13.83-18.78-5.65-2.83-12.75-4.6-21.12-5.26-2.27-.15-4.5-.23-6.68-.23zm-5 37.07c-1.33-.2-1.72-.65-1.85-2.08-.01-.1-.02-.2-.04-.32-.15-1-.04-2.6.33-4.73 1.95-10.56 6.2-10.56 7.8-10.56.24 0 .5.05.84.08l.5.06c.68.1 1.54.2 1.77 2.6.2 1.9-.1 4.16-.92 6.77-2.64 8.28-6.12 8.28-7.26 8.28-.12 0-.24-.02-.36-.03a10.9 10.9 0 00-.82-.06z" class="J"/><path d="M44.9 147.15c-1.7 0-3.46-.07-5.36-.15-.02-.01-.54-.02-.56-.02-7.9-.55-14.76-2.16-20.38-4.78-8.03-3.7-12.5-9.16-13.3-16.27a21.9 21.9 0 01.76-7.84c.53-2.2 1.58-4.4 3.28-6.84a2.52 2.52 0 012.07-1.08h14.9l.5-1.3h-6.3c-4.9 0-9.28-1.55-13.02-4.6-1.5-1.2-2.92-2.9-4.18-5.05-.46-.8-.47-1.76-.02-2.54.45-.8 1.3-1.28 2.2-1.28h38.3c3.2-.36 6.67-.58 10.66-.7l2.8-.03c6.62 0 12.6.54 17.78 1.63a2.52 2.52 0 012 2.22l1.03 10.04c.1.86-.26 1.7-.94 2.24a2.55 2.55 0 01-1.58.55 2.44 2.44 0 01-.8-.13c-3.88-1.3-8.43-1.95-13.5-1.95l-1.67.02c-4.75.07-9 .98-12.66 2.68-4.27 2.03-7 5.06-8.07 9.02-.24.85-.33 1.75-.26 2.55.16 1.46.67 6.08 11.3 7.94 2.5.43 5 .65 7.47.65 4.23 0 8.6-.58 13-1.72a2.554 2.554 0 012.8 1.12 2.53 2.53 0 01-.26 3l-8.85 10.04c-.36.4-.85.7-1.38.8-5.6 1.16-11.6 1.75-17.78 1.75z"/><path d="M57.25 97.2c6.4 0 12.22.52 17.26 1.57l1.03 10.04c-3.97-1.32-8.72-2.08-14.3-2.08l-1.74.02c-5.24.08-9.8 1.12-13.65 2.92-4.9 2.32-8.16 5.93-9.45 10.64-.34 1.2-.43 2.4-.34 3.44.6 5.42 5.06 8.76 13.4 10.22 2.5.43 5.15.7 7.9.7 4.72 0 9.35-.7 13.65-1.8l-8.85 10.04c-5.32 1.1-11.16 1.7-17.26 1.7-1.8 0-3.7-.08-5.75-.17-7.55-.52-14.16-2.06-19.5-4.55-7.3-3.35-11.16-8.08-11.85-14.25-.17-2.15 0-4.47.68-6.87.52-2.15 1.55-4.12 2.92-6.1h16.65l2.4-6.36h-9.96c-4.3 0-8.16-1.37-11.42-4.04-1.3-1.02-2.5-2.48-3.6-4.38h38.3c4.03-.43 7.64-.6 10.73-.7h2.77M71 132.87h.03M57.25 92.14l-2.86.03c-3.98.1-7.44.33-10.88.7H5.48a5.07 5.07 0 00-4.4 2.55c-.9 1.58-.9 3.52.03 5.08 1.43 2.42 3.04 4.36 4.8 5.77a22.86 22.86 0 002.95 2.05 5.01 5.01 0 00-1.62 1.49c-1.9 2.7-3.06 5.2-3.7 7.8-.75 2.63-1.04 5.54-.8 8.46.9 8.2 5.87 14.36 14.78 18.45 5.87 2.74 13.03 4.42 21.25 5l.63.03 5.47.15c6.37 0 12.52-.6 18.3-1.82a5.03 5.03 0 002.76-1.61l8.7-9.88c.88-.9 1.42-2.15 1.42-3.5 0-2.78-2.22-5.03-5-5.06h-.1c-.15 0-.3.01-.45.02-.32.03-.63.1-.93.17-4.16 1.07-8.3 1.6-12.27 1.6-2.32 0-4.68-.2-7.04-.6-8.75-1.53-9.1-4.73-9.22-5.78-.03-.38.03-.98.18-1.5.9-3.24 3.15-5.73 6.74-7.44 3.3-1.54 7.2-2.36 11.56-2.43.6-.02 1.13-.02 1.66-.02 4.8 0 9.08.6 12.7 1.82.52.17 1.06.26 1.6.26a5.06 5.06 0 003.17-1.11 5.065 5.065 0 001.87-4.47l-1.03-10.04c-.22-2.2-1.84-4-4-4.44-5.32-1.14-11.47-1.7-18.27-1.7z" class="J"/><linearGradient id="A" gradientUnits="userSpaceOnUse" x1="-42.839" y1="62.049" x2="352.64" y2="62.049"><stop offset="0" stop-color="#79d50f"/><stop offset=".084" stop-color="#72d20d"/><stop offset=".207" stop-color="#5eca07"/><stop offset=".309" stop-color="#49c101"/><stop offset=".364" stop-color="#3fbc01"/><stop offset=".457" stop-color="#24b000"/><stop offset=".522" stop-color="#0ea600"/><stop offset=".664" stop-color="#139300"/><stop offset=".727" stop-color="#108c00"/><stop offset=".821" stop-color="#087700"/><stop offset=".887" stop-color="#006500"/></linearGradient><path d="M174.34 87.55c-1.3 0-2.38-.97-2.52-2.26l-.53-4.87h-14.9l-3.9 5.97c-.47.72-1.27 1.15-2.12 1.15h-28.5a2.53 2.53 0 01-2.3-1.48c-.4-.9-.26-1.96.4-2.7l26.78-31c.48-.55 1.17-.87 1.9-.88l10.5-.07.33-1.3h-11.93c-4.9 0-9.28-1.54-13.02-4.6-1.54-1.25-2.93-3-4.14-5.22-.43-.8-.4-1.74.05-2.5.45-.77 1.28-1.24 2.18-1.24h56.14a2.55 2.55 0 012.44 1.83l13.14 45.94c.22.77.06 1.6-.4 2.22-.48.64-1.23 1-2.02 1h-27.57zM169.9 67.1l-.77-7.27-4.16 7.27h4.93z" fill="url(#A)"/><path d="M188.76 39.08l13.14 45.94h-27.56l-.77-7.13h-18.55l-4.64 7.13h-28.5l26.78-31 12.45-.08 1.63-6.36h-15.2c-4.3 0-8.16-1.36-11.42-4.02-1.3-1.04-2.5-2.6-3.52-4.47h56.16M160.6 69.64h12.1l-1.9-17.86-10.22 17.86M188.76 34h-56.14c-1.8 0-3.44.94-4.35 2.48a5.06 5.06 0 00-.09 5.01c1.36 2.5 2.97 4.52 4.77 5.98 3.08 2.5 6.66 4.13 10.52 4.8l-25.4 29.42c-1.3 1.5-1.6 3.62-.77 5.42a5.06 5.06 0 004.6 2.96h28.5c1.7 0 3.3-.87 4.25-2.3l3.14-4.82h11.25l.28 2.6a5.067 5.067 0 005.03 4.52h27.56a5.05 5.05 0 004.04-2.02c.96-1.27 1.26-2.9.83-4.44L193.63 37.7a5.055 5.055 0 00-4.87-3.68z" class="J"/><linearGradient id="B" gradientUnits="userSpaceOnUse" x1="-46.498" y1="62.049" x2="346.853" y2="62.049"><stop offset="0" stop-color="#79d50f"/><stop offset=".084" stop-color="#72d20d"/><stop offset=".207" stop-color="#5eca07"/><stop offset=".309" stop-color="#49c101"/><stop offset=".364" stop-color="#3fbc01"/><stop offset=".457" stop-color="#24b000"/><stop offset=".522" stop-color="#0ea600"/><stop offset=".664" stop-color="#139300"/><stop offset=".727" stop-color="#108c00"/><stop offset=".821" stop-color="#087700"/><stop offset=".887" stop-color="#006500"/></linearGradient><path d="M246.1 87.55a2.52 2.52 0 01-2.04-1.04c-.48-.65-.6-1.5-.37-2.26l5.13-16.1h-7.56l-5.62 17.65a2.53 2.53 0 01-2.4 1.77h-27.8a2.54 2.54 0 01-2.04-1.03 2.53 2.53 0 01-.38-2.26l9.6-31A2.534 2.534 0 01215 51.5l13.54-.22.3-1.16h-13.2c-4.9 0-9.28-1.54-13.02-4.6-1.45-1.18-2.86-2.9-4.18-5.14-.46-.78-.47-1.76-.02-2.55s1.3-1.28 2.2-1.28h47.05c.8 0 1.56.38 2.03 1.02.48.64.62 1.48.4 2.25l-4.07 13.4h7.6l4.6-14.88c.33-1.06 1.3-1.8 2.42-1.8h28c.8 0 1.56.38 2.04 1.03a2.53 2.53 0 01.38 2.26L276.7 85.76a2.536 2.536 0 01-2.42 1.78H246.1z" fill="url(#B)"/><path d="M288.6 39.08l-14.34 45.94H246.1l6.18-19.4H239.4l-6.18 19.4h-27.8l9.6-31 15.45-.25 1.63-6.2h-16.48c-4.3 0-8.16-1.36-11.42-4.02-1.3-1.04-2.5-2.6-3.6-4.47h47.05l-5.07 16.66h12.88l5.15-16.66h28m-40.95 0h.03M288.6 34h-28c-2.22 0-4.18 1.45-4.84 3.57l-4.05 13.1h-2.3l2.98-9.8c.2-.56.33-1.17.33-1.8 0-2.8-2.25-5.06-5.05-5.06H200.6c-1.82 0-3.5.98-4.4 2.56s-.88 3.52.04 5.1c1.5 2.53 3.06 4.43 4.77 5.82a22.74 22.74 0 009.34 4.57c-.06.15-.12.3-.17.46l-9.6 31c-.48 1.54-.2 3.2.76 4.5a5.05 5.05 0 004.08 2.06h27.8a5.08 5.08 0 004.83-3.53l5.06-15.88h2.25l-4.08 12.8a5.06 5.06 0 00.74 4.53c.95 1.3 2.47 2.08 4.1 2.08h28.16c2.22 0 4.17-1.44 4.83-3.56l14.34-45.94c.48-1.54.2-3.2-.75-4.5a5.04 5.04 0 00-4.08-2.08zm0 10.13z" class="J"/><linearGradient id="C" gradientUnits="userSpaceOnUse" x1="-35.323" y1="62.049" x2="353.2" y2="62.049"><stop offset="0" stop-color="#79d50f"/><stop offset=".084" stop-color="#72d20d"/><stop offset=".207" stop-color="#5eca07"/><stop offset=".309" stop-color="#49c101"/><stop offset=".364" stop-color="#3fbc01"/><stop offset=".457" stop-color="#24b000"/><stop offset=".522" stop-color="#0ea600"/><stop offset=".664" stop-color="#139300"/><stop offset=".727" stop-color="#108c00"/><stop offset=".821" stop-color="#087700"/><stop offset=".887" stop-color="#006500"/></linearGradient><path d="M51.74 87.55c-.8 0-1.56-.4-2.04-1.03a2.54 2.54 0 01-.38-2.26l3.6-11.5h-3.84l-1.3-.08c-20.13-1.65-31.13-7.5-32.7-17.4-.23-1.25-.3-2.37-.2-3.4.64-6 5.77-10.3 15.26-12.85 4.6-1.23 9.76-1.98 15.3-2.23l.22-.05 6.4-.2h43.96l6.1.18.95.1c5.32.22 10.47.97 15.07 2.2 9.43 2.52 14.53 6.84 15.17 12.83.13 1.2.1 2.36-.1 3.46-1.95 11.85-17.35 17.9-45.76 17.9h-1.4l-4 12.57a2.52 2.52 0 01-2.4 1.77h-27.9zm38.8-27.82c6.87 0 8.2-2.88 8.6-5.05.22-.78.22-1.28.22-1.86-.08-.62-.3-2.72-4.94-2.72H53.8c-4.55 0-4.76 2.02-4.87 3-.03.23-.04.66.13 1.4.5 2.55 1.97 4 4.78 4.7h3.33l1.85-5.95c.33-1.06 1.3-1.78 2.42-1.78h28c.8 0 1.56.38 2.03 1.02.48.64.62 1.47.4 2.24l-1.5 5h.2z" fill="url(#C)"/><path d="M96.04 39.08l6.1.18.6.08c5.58.25 10.56 1.02 14.76 2.15 8.33 2.23 12.8 5.84 13.3 10.65.1.86.1 1.8-.08 2.74-1.72 10.47-16.3 15.8-43.27 15.8H84.2l-4.55 14.34h-27.9l4.64-14.78h-7.3l-1.12-.08c-18.8-1.54-29.02-6.7-30.4-15.3-.17-.95-.25-1.88-.17-2.74.5-4.8 5.07-8.42 13.4-10.65 4.2-1.13 9.2-1.9 14.77-2.15l.5-.08c1.03 0 3.78-.1 6.1-.18h43.86m-42.5 22.66h5.5l2.4-7.73h28l-2.5 8.25h3.6c6.44 0 10.22-2.4 11.08-7.13.26-.86.26-1.63.26-2.3-.26-2.42-1.8-5.25-7.47-5.25H53.8c-5.67 0-7.13 2.83-7.38 5.25-.1.7 0 1.46.17 2.23.68 3.52 2.92 5.75 6.95 6.7M96.04 34H52.17l-6.1.18a4.54 4.54 0 00-.82.07l-.22.04c-5.63.27-10.86 1.04-15.55 2.3-13.2 3.53-16.6 10.1-17.12 15-.13 1.3-.05 2.64.22 4.17 1.78 11.1 13.55 17.68 34.96 19.44l1.18.08c.12.01.24.01.36.01h.4l-2.57 8.2c-.48 1.54-.2 3.2.75 4.5a5.06 5.06 0 004.08 2.07h27.9a5.07 5.07 0 004.83-3.53l3.43-10.8c29.97-.06 45.62-6.62 47.82-20.05.23-1.25.27-2.65.12-4.08-.52-4.92-3.9-11.5-17.03-15.02-4.7-1.26-9.96-2.04-15.6-2.3l-.37-.05c-.23-.03-.46-.05-.7-.05-.98 0-3.46-.1-5.76-.17-.05 0-.27-.01-.33-.01zM94.3 52.63h.1c1.56 0 2.26.3 2.38.42s.01.04.02.1c0 .22-.01.4-.04.5-.06.18-.1.37-.14.56-.13.72-.37 2.02-2.78 2.63l.42-1.4c.3-.92.3-1.9.03-2.83zm-42.76.35c.03 0 .58-.35 2.26-.35h2.77l-1.26 4.04h-1.13c-2.06-.6-2.4-1.53-2.62-2.6-.12-.53-.1-.7-.1-.7.03-.27.08-.38.1-.4zm0 0z" class="J"/><linearGradient id="D" gradientUnits="userSpaceOnUse" x1="-113.518" y1="37.754" x2="339.568" y2="37.754"><stop offset="0" stop-color="#79d50f"/><stop offset=".084" stop-color="#72d20d"/><stop offset=".207" stop-color="#5eca07"/><stop offset=".309" stop-color="#49c101"/><stop offset=".364" stop-color="#3fbc01"/><stop offset=".457" stop-color="#24b000"/><stop offset=".522" stop-color="#0ea600"/><stop offset=".664" stop-color="#139300"/><stop offset=".727" stop-color="#108c00"/><stop offset=".821" stop-color="#087700"/><stop offset=".887" stop-color="#006500"/></linearGradient><path d="M348.78 50.27c-7.1 0-13-4.7-13.7-10.95-.75-6.84 4.95-13.12 12.7-13.98a15.76 15.76 0 011.8-.1c7.1 0 12.97 4.7 13.66 10.94.75 6.84-4.94 13.12-12.7 14-.6.06-1.18.1-1.77.1z" fill="url(#D)"/><path d="M349.6 27.77c5.74 0 10.6 3.66 11.14 8.68.6 5.47-4.1 10.48-10.46 11.2-.5.05-1 .08-1.5.08-5.76 0-10.62-3.66-11.18-8.7-.6-5.47 4.08-10.47 10.47-11.2.52-.04 1.02-.07 1.52-.07m0-5.07c-.7 0-1.38.04-2.08.12-9.14 1.02-15.84 8.54-14.94 16.77.83 7.53 7.8 13.2 16.2 13.2.67 0 1.35-.04 2.04-.1 9.16-1.03 15.85-8.56 14.94-16.8-.82-7.52-7.78-13.2-16.17-13.2z" class="J"/><linearGradient id="E" gradientUnits="userSpaceOnUse" x1="-175.244" y1="11.57" x2="350.781" y2="11.57"><stop offset="0" stop-color="#79d50f"/><stop offset=".084" stop-color="#72d20d"/><stop offset=".207" stop-color="#5eca07"/><stop offset=".309" stop-color="#49c101"/><stop offset=".364" stop-color="#3fbc01"/><stop offset=".457" stop-color="#24b000"/><stop offset=".522" stop-color="#0ea600"/><stop offset=".664" stop-color="#139300"/><stop offset=".727" stop-color="#108c00"/><stop offset=".821" stop-color="#087700"/><stop offset=".887" stop-color="#006500"/></linearGradient><path d="M312.26 20.6c-.74 0-1.44-.32-1.92-.88a2.54 2.54 0 01-.59-2.03l.17-1.3.84-5 .33-1.88c.33-1.8.95-3.42 1.87-4.86 1.14-1.78 2.6-2.15 3.64-2.15a4.54 4.54 0 011.47.25c1.62.57 2.96 1.44 4.07 2.6 1.86 1.95 3.06 3.82 3.77 5.87l.25.66c.3.75.63 1.6.75 2.6.12 1.07.1 2.15.08 3.24-.03 1.37-1.16 2.85-2.54 2.85h-12.2z" fill="url(#E)" class="K"/><path d="M316.6 5.06a2.27 2.27 0 01.68.12c1.15.4 2.18 1.06 3.02 1.94 1.38 1.44 2.55 3.04 3.2 4.95.32.9.77 1.8.88 2.73.12 1.07.08 2.17.05 3.27h-12.2l.17-1.3 1.16-6.8c.26-1.42.75-2.74 1.5-3.93.34-.52.8-1 1.52-1m0-5.06c-1.36 0-3.92.43-5.77 3.3-1.1 1.72-1.85 3.66-2.23 5.76l-.34 1.9-.85 5.07-.1.73-.07.54a4.99 4.99 0 001.18 4.05c.96 1.1 2.36 1.76 3.83 1.76h12.2c2.75 0 5-2.2 5.06-4.95l.01-.37c.03-1.07.06-2.3-.1-3.6-.15-1.34-.6-2.44-.9-3.25l-.22-.58c-.8-2.35-2.23-4.57-4.33-6.77C322.63 2.2 320.9 1.1 319 .4a7.3 7.3 0 00-2.4-.4z" class="J"/><linearGradient id="F" gradientUnits="userSpaceOnUse" x1="-49.776" y1="54.998" x2="340.352" y2="54.998"><stop offset="0" stop-color="#79d50f"/><stop offset=".084" stop-color="#72d20d"/><stop offset=".207" stop-color="#5eca07"/><stop offset=".309" stop-color="#49c101"/><stop offset=".364" stop-color="#3fbc01"/><stop offset=".457" stop-color="#24b000"/><stop offset=".522" stop-color="#0ea600"/><stop offset=".664" stop-color="#139300"/><stop offset=".727" stop-color="#108c00"/><stop offset=".821" stop-color="#087700"/><stop offset=".887" stop-color="#006500"/></linearGradient><path d="M321.74 88.15c-2.06 0-3.9-.22-5.64-.68-1.75-.44-3.76-1.08-5.34-2.87a2.91 2.91 0 01-.32-.46l-.5-.87-1.25-2.4c-.52-1.27-.84-2.6-1.07-3.72l-.8-4.5c-.1-.6-.12-1.15-.16-1.72l-.05-.72-.1-.82-.24-2.6-.07-3.33-.04-3.07V55.9a276.17 276.17 0 01.55-11.09l.8-8.64.12-1.18.92-8.22.36-2.72c.17-1.26 1.24-2.2 2.5-2.2h12.8a2.559 2.559 0 012.54 2.67l-.27 5.4-.27 7.57-.08 2.8-.02 3.34.4 9.06c.26 3.25.75 5.66 1.56 7.8.38.97.73 1.7 1.24 2.28.44.5.7.5.87.5a61.29 61.29 0 004.36-.59l4.4-.9 4.8-1.36 2.83-.83 4.16-1.24 3.2-1.04 2.05-.68 4.56-1.4 2.9-.97 5.13-1.72 8.22-2.87 4.6-1.67 4.66-1.54 6.08-2.2 5.25-1.8 5.7-2.1 2.46-.84c.3-.1.63-.14.96-.14 1 0 2.03.4 2.46 1.22l5.42 10.03a2.52 2.52 0 01-.87 3.33l-.8.5-1.94 1.23-4.93 2.8-2.33 1.33-2.4 1.23-6.9 3.58-3.45 1.7-7.62 3.55-5.2 2.26-7.4 3.12-2.73 1.02-2.03.83-2.93 1.18-2.38.8-1.47.48-2.58.92-3.97 1.38c-3.25 1-6.48 1.98-9.73 2.86-2.47.68-5.43 1.45-8.55 2-3.3.6-6.57 1.02-9.7 1.3-.9.06-1.8.1-2.73.1z" fill="url(#F)" class="K"/><path d="M324.2 24.38l-.27 5.43-.33 9.54-.04 4.37.42 9.14c.23 2.9.67 5.77 1.72 8.52.43 1.1.9 2.15 1.7 3.05.78.88 1.68 1.36 2.77 1.36.12 0 .24-.01.37-.02l4.42-.6 4.6-.94 5.83-1.66 6.12-1.8 5.27-1.73 4.55-1.4 4.8-1.62 3.3-1.1 4.73-1.64 3.53-1.24 4.6-1.67 4.64-1.53 6.1-2.2 5.26-1.8 5.7-2.1 2.8-.94 5.42 10.03-2.68 1.7-3.17 1.78-4 2.28-4.2 2.15-5.05 2.63-4.1 2.02-6.86 3.18-5.16 2.25-3.16 1.32-4.2 1.8-2.73 1.02-4.9 1.98-3.78 1.26-6.5 2.3-9.6 2.82-8.33 1.96-9.46 1.26-2.56.1c-1.68 0-3.36-.16-5-.6-1.53-.4-2.98-.85-4.08-2.1l-1.62-3.02s-.7-2.16-.93-3.27l-.8-4.4c-.1-.74-.12-1.5-.18-2.24l-.33-3.34-.07-4.43-.04-6.22c.1-3.67.3-7.35.55-11.02.23-3.25.58-6.5.92-9.74l.92-8.16.36-2.7h12.76m0-5.1h-12.8a5.07 5.07 0 00-5.02 4.39l-.1.7-.27 2.06-.93 8.26-.12 1.16-.8 8.73c-.26 3.73-.45 7.5-.56 11.23-.06 1.5-.03 3.04 0 4.58l.03 1.84.01 1.2c.01 1.15.01 2.3.07 3.44.05.93.15 1.85.26 2.77l.1.85.03.55c.04.63.08 1.27.17 1.9.26 1.62.52 3.18.85 4.72.26 1.23.6 2.7 1.2 4.14.44 1.06.95 1.94 1.4 2.72l.46.8c.18.33.4.64.64.92 2.23 2.53 5.1 3.27 6.63 3.66 1.92.5 3.98.75 6.26.75 1 0 1.98-.05 2.97-.13 3.22-.27 6.56-.72 9.94-1.32 3.22-.58 6.25-1.37 8.78-2.07 2.83-.77 5.95-1.68 9.77-2.87 1.4-.46 2.76-.94 4.1-1.43l2.54-.9 1.4-.46c.84-.27 1.68-.54 2.5-.85 1-.38 2-.8 3-1.2l1.95-.8c.5-.2.94-.36 1.4-.52l1.32-.5 2.6-1.1 1.72-.74.6-.25 2.6-1.08 1.66-.72 3.57-1.56 6.93-3.2.8-.38 3.5-1.72 2.48-1.3 2.55-1.32 1.84-.94a82.28 82.28 0 002.47-1.27c.8-.43 1.6-.9 2.4-1.37l1.65-.95 1.28-.7 2-1.13a58.96 58.96 0 002.04-1.29l.77-.5c2.23-1.43 3-4.34 1.73-6.67l-5.4-10.03a5.074 5.074 0 00-6.04-2.41l-.4.13-2.55.86-5.7 2.1-3.1 1.07-2.1.7-6.13 2.2a85.01 85.01 0 01-2.25.74l-2.35.78-2.1.76-2.57.93-3.52 1.24-2.07.72-2.58.9-1.35.45-1.97.66-1.84.63-2.83.95-4.56 1.4-2.08.7-3.12 1-4.14 1.24-1.95.57-.9.27-4.73 1.34c-1.25.32-2.6.6-4.16.85-1.1.2-2.16.34-3.23.47-.17-.32-.34-.72-.5-1.1-.7-1.86-1.14-4.05-1.4-7.07-.22-2.96-.32-6.1-.4-8.9-.04-1.1-.01-2.15.02-3.2l.02-.87.06-1.9.27-7.55.26-5.3c.07-1.4-.42-2.8-1.38-3.8a4.83 4.83 0 00-3.62-1.64zm0 10.13z" class="J"/><linearGradient id="G" gradientUnits="userSpaceOnUse" x1="-192.09" y1="42.183" x2="313.123" y2="42.183"><stop offset="0" stop-color="#79d50f"/><stop offset=".084" stop-color="#72d20d"/><stop offset=".207" stop-color="#5eca07"/><stop offset=".309" stop-color="#49c101"/><stop offset=".364" stop-color="#3fbc01"/><stop offset=".457" stop-color="#24b000"/><stop offset=".522" stop-color="#0ea600"/><stop offset=".664" stop-color="#139300"/><stop offset=".727" stop-color="#108c00"/><stop offset=".821" stop-color="#087700"/><stop offset=".887" stop-color="#006500"/></linearGradient><path d="M417.5 50.9a2.523 2.523 0 01-2.23-1.33l-4.68-8.67c-.36-.67-.4-1.46-.12-2.16a2.53 2.53 0 011.59-1.46l1.98-.63 1.7-.58 3.1-1.03 4.77-1.34a5.31 5.31 0 011.5-.23c1.33 0 2.55.54 3.35 1.5.82.97 1.15 2.26.93 3.64-.3 1.64-1.05 3.14-2.33 4.6-1.45 1.7-3.08 3.2-4.33 4.3-.98.86-2.03 1.64-3.1 2.4l-.66.48c-.42.33-.95.5-1.5.5z" fill="url(#G)" class="K"/><path d="M425.13 36c1.1 0 2 .77 1.78 2.2-.23 1.3-.93 2.42-1.75 3.37-1.24 1.45-2.66 2.78-4.1 4.06-1.12 1-2.36 1.86-3.57 2.75l-4.68-8.67 2.05-.65 4.72-1.58 4.8-1.35a2.34 2.34 0 01.74-.12m0-5.07a7.64 7.64 0 00-2.21.33l-2.37.67-2.44.68-3.2 1.06-1.64.56-1.64.53-.32.1a5.08 5.08 0 00-3.19 2.92 5.07 5.07 0 00.23 4.32l4.68 8.67a5.08 5.08 0 003.35 2.54 5.24 5.24 0 001.11.12 5.07 5.07 0 003.01-.99l.65-.48 3.27-2.55c1.32-1.17 3.03-2.74 4.6-4.56 1.55-1.8 2.53-3.75 2.9-5.77.36-2.2-.17-4.22-1.48-5.76-1.3-1.52-3.22-2.4-5.3-2.4z" class="J"/><path d="M122.68 145.98a2.54 2.54 0 01-2.04-1.03 2.53 2.53 0 01-.38-2.26L130.4 110h-7.58l-10.7 34.2a2.523 2.523 0 01-2.42 1.78H81.9c-.8 0-1.56-.38-2.04-1.03a2.53 2.53 0 01-.38-2.26l9.7-31.07c.33-1.05 1.3-1.78 2.42-1.78h13.24l.4-1.3H92.12c-4.9 0-9.28-1.55-13.02-4.6-1.52-1.2-2.9-2.86-4.2-5.05-.46-.78-.47-1.75-.02-2.54s1.3-1.28 2.2-1.28h88c.8 0 1.56.4 2.04 1.03a2.53 2.53 0 01.38 2.26l-14.34 45.84a2.523 2.523 0 01-2.42 1.78h-28.07z" fill="#333"/><path d="M165.1 97.6l-14.34 45.84h-28.08l11.16-35.97h-12.88l-11.25 35.97H81.9l9.7-31.07h15.1l1.97-6.35H92.12c-4.3 0-8.15-1.37-11.42-4.04-1.3-1.02-2.5-2.48-3.6-4.38h88m0-5.07h-88c-1.82 0-3.5.97-4.4 2.55s-.9 3.52.04 5.08c1.45 2.46 3.03 4.35 4.82 5.77a22.54 22.54 0 009.34 4.56c-.05.12-.1.24-.13.36l-9.7 31.07c-.48 1.54-.2 3.2.75 4.5a5.05 5.05 0 004.08 2.06h27.82c2.2 0 4.17-1.44 4.83-3.55l10.14-32.42h2.28l-9.13 29.4a5.05 5.05 0 004.84 6.57h28.08c2.2 0 4.17-1.44 4.83-3.55L169.9 99.1c.48-1.54.2-3.2-.75-4.5a5.017 5.017 0 00-4.07-2.06zm0 10.13z" class="J"/><path d="M250.77 145.98c-.8 0-1.56-.4-2.04-1.03a2.54 2.54 0 01-.38-2.26l9.7-31c.33-1.06 1.3-1.78 2.42-1.78h28c.8 0 1.56.4 2.04 1.03a2.53 2.53 0 01.38 2.26l-1.55 4.95h.16c6.86 0 8.24-2.9 8.68-5.1.05-.25.2-1.02.14-1.5-.1-1.02-.32-3.03-4.87-3.03H261c-4.9 0-9.28-1.55-13.02-4.6-1.5-1.2-2.92-2.9-4.18-5.05-.46-.8-.47-1.76-.02-2.54.45-.8 1.3-1.28 2.2-1.28h49.1c8.6 0 16.05.84 22.13 2.5 9.43 2.52 14.53 6.83 15.16 12.8.1.97.02 2-.1 3.17-2.1 12.24-17.07 18.1-45.8 18.1H285l-4 12.57a2.52 2.52 0 01-2.4 1.77h-27.82z" fill="#333"/><path d="M295.07 97.6c8.24 0 15.46.77 21.46 2.4 8.33 2.23 12.8 5.75 13.3 10.64.08.77 0 1.73-.1 2.67-1.8 10.48-16.3 15.8-43.27 15.8h-3.35l-4.55 14.34h-27.82l9.7-31h28l-2.57 8.23h3.6c6.52 0 10.2-2.4 11.16-7.13.17-.86.26-1.63.17-2.3-.25-2.4-1.7-5.23-7.38-5.23H261c-4.3 0-8.16-1.37-11.42-4.04-1.3-1.02-2.5-2.48-3.6-4.38h49.1m-6.6 14.84h.03m6.58-19.92h-49.1a5.07 5.07 0 00-4.4 2.55c-.9 1.58-.9 3.52.03 5.08 1.42 2.42 3.04 4.36 4.82 5.77 2.75 2.25 5.94 3.8 9.38 4.57a5.46 5.46 0 00-.16.43l-9.7 31c-.48 1.54-.2 3.2.75 4.5a5.06 5.06 0 004.08 2.07h27.82a5.07 5.07 0 004.83-3.53l3.43-10.8c29.93-.05 45.6-6.6 47.9-20 .02-.13.04-.25.05-.38.12-1.3.2-2.48.08-3.7-.75-7.1-6.48-12.16-17.04-14.98-6.25-1.7-13.92-2.6-22.75-2.6zm-1.72 18.55h.1c1.6 0 2.2.32 2.3.38 0 .02.03.12.05.32.01.06.01.25-.1.8-.16.8-.42 2.08-2.8 2.7l.3-.98c.22-.57.35-1.2.35-1.84 0-.47-.06-.93-.2-1.37z" class="J"/><path d="M338.26 145.98a2.54 2.54 0 01-2.04-1.03c-.48-.64-.62-1.48-.4-2.25l9.53-31.07c.33-1.06 1.3-1.8 2.42-1.8h11.35l.42-1.37h-14.78c-4.9 0-9.26-1.52-12.93-4.53-1.4-1.1-2.76-2.74-4.16-5a2.55 2.55 0 01-.06-2.56c.45-.8 1.3-1.3 2.2-1.3l69.2-.08a2.55 2.55 0 012.3 1.46c.42.9.28 1.94-.35 2.7L393 108.7c-.48.57-1.2.9-1.94.9h-11.7l-10.7 34.62c-.33 1.06-1.3 1.8-2.42 1.8h-27.97z" fill="#333"/><path d="M399.04 97.5l-7.98 9.53H377.5l-11.25 36.4h-28l9.53-31.07H361l1.97-6.44h-18.2c-4.2 0-8.07-1.3-11.33-3.96-1.3-1.02-2.5-2.57-3.6-4.38l69.2-.08m0-5.06l-69.2.08a5.06 5.06 0 00-4.42 2.6c-.9 1.6-.85 3.56.12 5.13 1.55 2.52 3.1 4.38 4.77 5.7 3.56 2.9 7.9 4.63 12.62 4.98l-9.52 31.03c-.47 1.54-.2 3.2.77 4.5.95 1.3 2.47 2.05 4.07 2.05h28c2.22 0 4.18-1.45 4.84-3.57l10.15-32.83h9.83c1.5 0 2.92-.66 3.88-1.8l7.98-9.53c1.26-1.5 1.54-3.6.7-5.4a5.078 5.078 0 00-4.6-2.92zm0 10.13z" class="J"/><path d="M207.76 146.83c-10.93 0-20.12-2-27.32-5.97-7.43-4.06-11.6-9.8-12.37-17.07-.1-.86-.1-1.64-.1-2.4 0-3.6.9-7.03 2.63-10.22a2.53 2.53 0 012.22-1.32h19.26l.4-1.3h-9.1c-4.87 0-9.35-1.6-12.96-4.63-1.48-1.17-2.9-2.88-4.16-5.03-.46-.8-.47-1.76-.02-2.54.45-.8 1.3-1.28 2.2-1.28h30.82c3.1-.48 6.83-.74 10.7-.74a89.25 89.25 0 016.48.23c8.07.64 14.85 2.3 20.2 5 7.6 3.85 11.68 9.34 12.46 16.77.3 3-.03 6.02-.96 9-1.9 6.13-6.4 11.23-13.36 15.18-7.33 4.2-16.42 6.32-27 6.32zm-1.63-15.36c1.6 0 6.48 0 9.7-10.1.9-2.9 1.24-5.5 1-7.73-.3-3-1.6-4.53-4.1-4.88-.86-.1-1.22-.14-1.55-.14-1.97 0-7.96 0-10.3 12.7-.42 2.4-.53 4.22-.33 5.52.25 2.85 1.6 4.25 4.3 4.55h.07l1.2.08z" fill="#333"/><path d="M209.96 96.86l6.3.22c7.64.6 14.08 2.15 19.23 4.73 6.78 3.44 10.4 8.24 11.08 14.77.25 2.57 0 5.24-.86 8-1.7 5.5-5.84 10.13-12.2 13.73-7.04 4.04-15.7 6-25.76 6-10.47 0-19.23-1.88-26.1-5.66-6.78-3.7-10.4-8.68-11.08-15.12-.08-.77-.08-1.46-.08-2.15 0-3.17.77-6.17 2.32-9h21.12l1.97-6.35h-12.53c-4.3 0-8.16-1.37-11.34-4.04-1.3-1.02-2.5-2.48-3.6-4.38h30.82c3.4-.5 6.98-.73 10.7-.73M206.13 134c5.58 0 9.62-4.04 12.1-11.85 1.03-3.34 1.37-6.26 1.12-8.75-.52-5.23-3.7-6.78-6.27-7.13-.77-.08-1.37-.17-1.9-.17-6.7 0-11 4.98-12.8 14.77-.43 2.5-.6 4.63-.34 6.36.34 3.95 2.66 6.26 6.52 6.7.5-.01 1.03.07 1.54.07m3.83-42.2c-3.86 0-7.57.25-11.06.74h-30.46a5.07 5.07 0 00-4.4 2.55c-.9 1.58-.9 3.52.03 5.08 1.42 2.42 3.04 4.36 4.82 5.77a22.37 22.37 0 002.25 1.65 5.11 5.11 0 00-2.77 2.35c-1.95 3.57-2.94 7.42-2.94 11.43 0 .86.01 1.73.1 2.7.87 8.14 5.47 14.54 13.68 19.02 7.56 4.16 17.17 6.28 28.52 6.28 11.04 0 20.55-2.25 28.27-6.67 7.5-4.26 12.4-9.86 14.5-16.62 1.04-3.3 1.4-6.67 1.07-10-.87-8.27-5.52-14.58-13.83-18.8-5.65-2.83-12.75-4.6-21.12-5.26-2.27-.15-4.5-.23-6.68-.23zm-5 37.07c-1.33-.2-1.72-.64-1.85-2.08a2.91 2.91 0 00-.04-.31c-.15-1-.04-2.6.33-4.74 1.95-10.57 6.2-10.57 7.8-10.57.24 0 .52.05.85.08l.5.06c.7.1 1.54.2 1.78 2.6.2 1.9-.12 4.16-.92 6.77-2.64 8.27-6.12 8.28-7.26 8.28-.12 0-.24-.02-.36-.03l-.82-.05z" class="J"/><path d="M44.47 146.83c-1.7 0-3.47-.07-5.38-.15-.02-.01-.53-.02-.55-.02-7.9-.54-14.75-2.15-20.4-4.78-8.03-3.7-12.5-9.16-13.3-16.27-.22-2.68.04-5.3.76-7.84.52-2.2 1.57-4.4 3.28-6.84.47-.68 1.25-1.08 2.08-1.08h14.9l.5-1.3h-6.3c-4.9 0-9.28-1.55-13.02-4.6-1.5-1.2-2.92-2.9-4.18-5.05-.46-.8-.47-1.76-.02-2.54.45-.8 1.3-1.28 2.2-1.28h38.3c3.2-.35 6.78-.58 10.66-.7l2.8-.03c6.6 0 12.6.54 17.8 1.63a2.54 2.54 0 012.01 2.22l1.03 10.04c.1.86-.26 1.7-.94 2.24a2.55 2.55 0 01-1.58.55 2.44 2.44 0 01-.8-.13c-3.88-1.3-8.4-1.95-13.47-1.95l-1.7.02c-4.76.07-9 .98-12.66 2.68-4.27 2.02-7 5.06-8.07 9-.24.85-.33 1.75-.26 2.55.16 1.46.67 6.08 11.3 7.95 2.52.43 5.03.65 7.47.65 4.24 0 8.62-.58 13-1.72.2-.06.42-.08.64-.08.86 0 1.7.45 2.16 1.2.58.94.48 2.16-.25 3l-8.85 10.04c-.36.4-.85.7-1.38.8-5.6 1.16-11.57 1.75-17.8 1.75z" fill="#333"/><path d="M56.8 96.88c6.4 0 12.23.52 17.28 1.57l1.03 10.04c-3.96-1.32-8.7-2.08-14.27-2.08-.58 0-1.18.01-1.78.03-5.24.08-9.8 1.1-13.65 2.92-4.9 2.32-8.15 5.92-9.44 10.64-.34 1.2-.43 2.4-.34 3.44.6 5.42 5.06 8.76 13.4 10.22 2.5.43 5.15.7 7.9.7 4.72 0 9.36-.7 13.65-1.8l-8.85 10.04c-5.32 1.12-11.16 1.7-17.25 1.7-1.8 0-3.7-.08-5.75-.17-7.55-.52-14.17-2.06-19.5-4.54-7.3-3.35-11.16-8.07-11.84-14.25-.17-2.15 0-4.47.68-6.87.5-2.15 1.55-4.1 2.92-6.1h16.66l2.4-6.35H20.1c-4.3 0-8.16-1.37-11.42-4.04-1.3-1.02-2.5-2.48-3.6-4.38h38.3c4.03-.42 7.64-.6 10.73-.7l2.72-.03m13.76 35.66h.03M56.8 91.82l-2.84.03c-3.87.1-7.43.33-10.88.7H5.06a5.07 5.07 0 00-4.4 2.55c-.9 1.58-.9 3.52.03 5.08 1.42 2.42 3.04 4.36 4.82 5.77.93.76 1.92 1.45 2.94 2.04-.64.37-1.2.87-1.63 1.5-1.9 2.72-3.06 5.2-3.7 7.8-.75 2.64-1.04 5.55-.8 8.46.9 8.2 5.87 14.35 14.78 18.45 5.9 2.75 13.05 4.43 21.26 5l.62.03 5.48.15c6.4 0 12.55-.6 18.3-1.82a5.03 5.03 0 002.76-1.61l8.7-9.88c.88-.9 1.42-2.15 1.42-3.5 0-2.78-2.22-5.03-5-5.06h-.1c-.15 0-.3.01-.44.02-.32.03-.64.1-.94.17-4.15 1.07-8.28 1.6-12.27 1.6-2.3 0-4.66-.2-7.05-.62-8.74-1.53-9.1-4.73-9.2-5.8-.03-.38.03-.97.18-1.5.9-3.24 3.15-5.73 6.74-7.43 3.3-1.54 7.2-2.36 11.57-2.43.62-.02 1.16-.02 1.7-.02 4.8 0 9.05.6 12.67 1.82.52.17 1.06.26 1.6.26a5.06 5.06 0 003.17-1.11 5.054 5.054 0 001.87-4.47l-1.03-10.04c-.22-2.2-1.85-4-4-4.44-5.35-1.12-11.5-1.68-18.3-1.68z" class="J"/></svg>