<svg width="34" height="34" viewBox="0 0 34 34" fill="none" xmlns="http://www.w3.org/2000/svg">
<path d="M24.5556 0H9.44444C4.22922 0 0 4.22922 0 9.44444V24.5556C0 29.7708 4.22922 34 9.44444 34H24.5556C29.7708 34 34 29.7708 34 24.5556V9.44444C34 4.22922 29.7708 0 24.5556 0ZM17 26.4444C11.7848 26.4444 7.55556 22.2152 7.55556 17C7.55556 11.7848 11.7848 7.55556 17 7.55556C22.2152 7.55556 26.4444 11.7848 26.4444 17C26.4444 22.2152 22.2152 26.4444 17 26.4444ZM28.3333 7.55556C27.2907 7.55556 26.4444 6.70933 26.4444 5.66667C26.4444 4.624 27.2907 3.77778 28.3333 3.77778C29.376 3.77778 30.2222 4.624 30.2222 5.66667C30.2222 6.70933 29.376 7.55556 28.3333 7.55556Z" fill="#DA2D78"/>
<path d="M17 11.6875C15.591 11.6875 14.2398 12.2472 13.2435 13.2435C12.2472 14.2398 11.6875 15.591 11.6875 17C11.6875 18.409 12.2472 19.7602 13.2435 20.7565C14.2398 21.7528 15.591 22.3125 17 22.3125C18.409 22.3125 19.7602 21.7528 20.7565 20.7565C21.7528 19.7602 22.3125 18.409 22.3125 17C22.3125 15.591 21.7528 14.2398 20.7565 13.2435C19.7602 12.2472 18.409 11.6875 17 11.6875Z" fill="#DA2D78"/>
</svg>
