<svg width="52" height="40" viewBox="0 0 52 40" fill="none" xmlns="http://www.w3.org/2000/svg">
<path d="M9.37798 39.878V37.278C9.47798 36.378 8.77798 35.678 7.87798 35.578C7.77798 35.578 7.77798 35.578 7.67798 35.578C7.07798 35.578 6.47798 35.778 6.17798 36.378C5.87798 35.878 5.37798 35.578 4.77798 35.578C4.27798 35.578 3.77798 35.778 3.57798 36.178V35.678H2.67798V39.878H3.57798V37.478C3.47798 36.978 3.87798 36.478 4.47798 36.378H4.57798C5.17798 36.378 5.47798 36.778 5.47798 37.478V39.878H6.37798V37.478C6.27798 36.978 6.67798 36.478 7.27798 36.378H7.37798C7.97798 36.378 8.27798 36.778 8.27798 37.478V39.878H9.37798ZM23.178 35.678H21.678V34.378H20.678V35.678H19.778V36.478H20.678V38.378C20.678 39.378 21.078 39.978 22.178 39.978C22.578 39.978 22.978 39.878 23.378 39.678L23.078 38.878C22.878 38.978 22.578 39.078 22.278 39.078C21.778 39.078 21.678 38.778 21.678 38.378V36.478H23.178V35.678ZM30.978 35.578C30.478 35.578 30.078 35.778 29.878 36.178V35.678H28.978V39.878H29.878V37.478C29.878 36.778 30.178 36.378 30.778 36.378C30.978 36.378 31.178 36.378 31.378 36.478L31.678 35.578C31.478 35.578 31.178 35.578 30.978 35.578ZM19.178 35.978C18.678 35.678 18.078 35.478 17.478 35.578C16.378 35.578 15.678 36.078 15.678 36.878C15.678 37.578 16.178 37.978 17.178 38.078L17.578 38.178C18.078 38.278 18.278 38.378 18.278 38.578C18.278 38.778 17.978 39.078 17.278 39.078C16.778 39.078 16.278 38.978 15.878 38.678L15.478 39.378C15.978 39.778 16.678 39.978 17.278 39.878C18.478 39.878 19.178 39.278 19.178 38.478C19.178 37.678 18.578 37.378 17.678 37.178L17.278 37.078C16.878 37.078 16.578 36.978 16.578 36.678C16.578 36.378 16.878 36.178 17.378 36.178C17.878 36.178 18.278 36.278 18.678 36.578L19.178 35.978ZM43.778 35.578C43.278 35.578 42.878 35.778 42.678 36.178V35.678H41.778V39.878H42.678V37.478C42.678 36.778 42.978 36.378 43.578 36.378C43.778 36.378 43.978 36.378 44.178 36.478L44.478 35.578C44.278 35.578 43.978 35.578 43.778 35.578ZM31.978 37.778C31.978 38.978 32.878 39.978 34.078 39.978C34.178 39.978 34.178 39.978 34.278 39.978C34.878 39.978 35.378 39.778 35.778 39.478L35.378 38.778C35.078 38.978 34.678 39.178 34.278 39.178C33.578 39.078 32.978 38.478 33.078 37.678C33.178 36.978 33.678 36.478 34.278 36.478C34.678 36.478 35.078 36.578 35.378 36.878L35.778 36.178C35.378 35.878 34.778 35.678 34.278 35.678C33.078 35.578 32.078 36.478 31.978 37.778C31.978 37.678 31.978 37.678 31.978 37.778ZM40.578 37.778V35.678H39.678V36.178C39.378 35.778 38.878 35.578 38.378 35.578C37.178 35.678 36.278 36.778 36.378 37.978C36.478 39.078 37.278 39.878 38.378 39.978C38.878 39.978 39.378 39.778 39.678 39.378V39.878H40.578V37.778ZM37.178 37.778C37.178 37.078 37.778 36.578 38.478 36.578C39.178 36.578 39.678 37.178 39.678 37.878C39.678 38.578 39.078 39.078 38.378 39.078C37.678 39.078 37.178 38.578 37.178 37.778ZM25.978 35.578C24.778 35.578 23.778 36.578 23.778 37.778C23.778 38.978 24.778 39.978 25.978 39.978C26.578 39.978 27.278 39.778 27.678 39.378L27.278 38.678C26.978 38.978 26.478 39.078 26.078 39.078C25.478 39.178 24.878 38.678 24.778 38.078H27.978C27.978 37.978 27.978 37.878 27.978 37.778C28.078 36.678 27.278 35.678 26.178 35.578C26.178 35.578 26.078 35.578 25.978 35.578ZM25.978 36.378C26.578 36.378 26.978 36.778 27.078 37.378H24.878C24.978 36.778 25.478 36.378 25.978 36.378ZM49.078 37.778V33.978H48.178V36.178C47.878 35.778 47.378 35.578 46.878 35.578C45.678 35.678 44.778 36.778 44.878 37.978C44.978 39.078 45.778 39.878 46.878 39.978C47.378 39.978 47.878 39.778 48.178 39.378V39.878H49.078V37.778ZM45.678 37.778C45.678 37.078 46.278 36.578 46.978 36.578C47.678 36.578 48.178 37.178 48.178 37.878C48.178 38.578 47.578 39.078 46.878 39.078C46.178 39.078 45.578 38.578 45.678 37.778ZM14.578 37.778V35.678H13.678V36.178C13.378 35.778 12.878 35.578 12.378 35.578C11.178 35.678 10.278 36.778 10.378 37.978C10.478 39.078 11.278 39.878 12.378 39.978C12.878 39.978 13.378 39.778 13.678 39.378V39.878H14.578V37.778ZM11.178 37.778C11.178 37.078 11.778 36.578 12.478 36.578C13.178 36.578 13.678 37.178 13.678 37.878C13.678 38.578 13.078 39.078 12.378 39.078C11.778 39.078 11.178 38.578 11.178 37.778Z" fill="white"/>
<path d="M32.778 3.37799H18.878V28.478H32.778V3.37799Z" fill="#FF5F00"/>
<path d="M19.678 15.878C19.678 10.978 21.878 6.37799 25.778 3.37799C18.878 -2.02201 8.87799 -0.822015 3.37799 6.07799C-2.02201 12.978 -0.822015 22.978 6.07799 28.478C11.878 32.978 19.978 32.978 25.778 28.478C21.878 25.478 19.678 20.778 19.678 15.878Z" fill="#EB001B"/>
<path d="M51.578 15.878C51.578 24.678 44.478 31.778 35.678 31.778C32.078 31.778 28.678 30.578 25.878 28.378C32.678 22.978 33.878 12.978 28.478 6.07799C27.678 5.07799 26.778 4.17799 25.778 3.37799C32.678 -2.02201 42.778 -0.822015 48.178 6.07799C50.378 8.87799 51.578 12.378 51.578 15.878Z" fill="#F79E1B"/>
</svg>
