<svg width="155" height="26" viewBox="0 0 155 26" fill="none" xmlns="http://www.w3.org/2000/svg">
<path d="M145.633 5.46368C145.429 4.52147 144.995 3.66543 144.329 2.92717C143.516 2.01656 142.496 1.42768 141.373 0.991044C140.19 0.537174 138.96 0.293006 137.705 0.157994C137.334 0.117777 136.964 0.0833052 136.593 0.0402162C136.429 0.0258532 136.269 0.0919215 136.105 0.00287102C132.454 0.00287102 128.8 0.00287102 125.146 0.00287102C124.968 0.965191 124.787 1.92464 124.606 2.88983C124.169 5.28845 123.724 7.68132 123.281 10.0799C122.891 12.2143 122.497 14.34 122.098 16.4743C121.931 17.3821 121.768 18.2984 121.604 19.2004C121.549 19.482 121.546 19.4877 121.285 19.4877C117.272 19.4877 113.25 19.4877 109.237 19.4877C109.151 19.4877 109.059 19.4934 108.947 19.4417C109.008 19.1344 109.059 18.8241 109.122 18.5168C109.312 17.4683 109.513 16.4198 109.708 15.3569C109.754 15.0984 109.76 15.0984 110.007 15.0984C111.492 15.0984 112.969 15.0984 114.451 15.0984C115.304 15.0984 116.16 15.0984 117.016 15.0984C117.398 15.0984 117.364 15.1386 117.43 14.768C117.694 13.2743 117.97 11.7863 118.237 10.304C118.272 10.1087 118.272 10.1029 118.065 10.1029C117.599 10.0972 117.126 10.1029 116.654 10.1029C114.764 10.1029 112.874 10.1029 110.978 10.1029C110.659 10.1029 110.662 10.1029 110.72 9.78407C110.949 8.55747 111.171 7.32512 111.403 6.09565C111.478 5.69349 111.398 5.7452 111.823 5.7452C114.184 5.73945 116.551 5.73945 118.912 5.73945C118.981 5.73945 119.062 5.7337 119.128 5.7452C119.286 5.75956 119.329 5.682 119.358 5.54411C119.481 4.82597 119.61 4.11643 119.74 3.40403C119.935 2.36415 120.13 1.31852 120.317 0.272895C120.334 0.189589 120.357 0.0976652 120.351 0.00574204C115.026 0.00574204 109.697 0.00574204 104.371 0.00574204C104.365 0.399288 104.259 0.778471 104.187 1.15191C103.978 2.38713 103.742 3.61373 103.512 4.84894C103.245 6.28524 102.975 7.73303 102.717 9.17795C102.401 10.9073 102.079 12.6308 101.763 14.3572C101.522 15.6643 101.286 16.9656 101.045 18.264C101.005 18.4708 100.999 18.4765 100.778 18.4765C99.0023 18.4765 97.2184 18.4765 95.4403 18.4765C95.199 18.4765 95.1875 18.4593 95.2363 18.2295C95.5638 16.4399 95.8999 14.6445 96.2389 12.8577C96.5577 11.1371 96.8766 9.41638 97.1926 7.69856C97.5287 5.87446 97.8705 4.06185 98.2095 2.24637C98.3387 1.56556 98.4651 0.870399 98.5915 0.18672C98.603 0.126396 98.6001 0.0603246 98.603 0C95.8223 0 93.0359 0 90.261 0C89.8646 2.1487 89.471 4.28879 89.0717 6.44037C88.7012 8.44544 88.3363 10.4505 87.9687 12.4585C87.6096 14.3888 87.2505 16.325 86.8914 18.2554C86.8512 18.4737 86.8455 18.4794 86.6358 18.4794C84.9007 18.4794 83.1657 18.4794 81.4306 18.4794C81.1893 18.4794 81.1893 18.4679 81.2382 18.2324C81.6662 15.9027 82.0999 13.5989 82.5251 11.2778C82.9675 8.89356 83.4213 6.50356 83.8666 4.11931C84.105 2.84387 84.3406 1.57131 84.5704 0.295879C84.5905 0.203956 84.6221 0.100541 84.5905 0C81.8069 0 79.0263 0 76.2456 0C76.2283 0.382055 76.1249 0.752623 76.0617 1.12319C75.8578 2.26074 75.6452 3.38679 75.4355 4.52147C75.1684 5.96926 74.9012 7.40843 74.6341 8.85335C74.3554 10.3758 74.071 11.904 73.7953 13.4294C73.4965 15.038 73.2006 16.6352 72.9048 18.2381C72.8387 18.5972 72.7611 18.9505 72.7094 19.3096C72.6864 19.4561 72.6204 19.4877 72.494 19.4877C72.4394 19.482 72.3848 19.4877 72.3302 19.4877C68.3316 19.4877 64.3358 19.4877 60.3371 19.482C59.9953 19.482 59.9551 19.5681 60.0384 19.1114C60.2711 17.8618 60.4923 16.6151 60.7163 15.3655C60.7652 15.1012 60.7652 15.1012 61.0524 15.1012C63.3763 15.1012 65.706 15.1012 68.03 15.1012C68.1046 15.1012 68.1765 15.0955 68.2483 15.1012C68.3689 15.1127 68.4292 15.061 68.4494 14.9375C68.7309 13.3547 69.0181 11.7748 69.3025 10.1977C69.3054 10.192 69.3025 10.1834 69.2996 10.169C69.1991 10.1087 69.0899 10.1345 68.9837 10.1345C66.6626 10.1345 64.3502 10.1345 62.032 10.1345C61.6901 10.1345 61.6844 10.1345 61.7447 9.80992C61.9803 8.51438 62.2187 7.22458 62.4542 5.92904C62.4801 5.78828 62.5318 5.72796 62.6869 5.73371C63.0029 5.74232 63.3189 5.73371 63.6406 5.73371C65.7778 5.73371 67.9122 5.73371 70.0465 5.73371C70.1097 5.73371 70.1729 5.72796 70.239 5.73945C70.3855 5.75381 70.4429 5.67912 70.4688 5.53837C70.5521 5.02704 70.6498 4.52147 70.7446 4.01302C70.9715 2.75482 71.2013 1.50237 71.4282 0.244168C71.4426 0.163735 71.4426 0.0833038 71.4512 0.00287102C54.8878 0.00287102 38.3302 0.00287102 21.7668 0.00287102C21.7151 0.491213 21.6059 0.965194 21.5197 1.44492C21.2009 3.19146 20.882 4.94661 20.5631 6.68453C20.2816 8.22137 20.003 9.75534 19.7243 11.2893C19.4974 12.5331 19.2647 13.7798 19.0378 15.0237C19.0234 15.107 19.0033 15.1845 18.989 15.2736C18.9028 15.2736 18.9028 15.2104 18.8855 15.1673C17.8801 12.4096 16.8776 9.64618 15.8722 6.88561C15.065 4.66797 14.2521 2.45894 13.4391 0.241297C13.4133 0.169482 13.396 0.0861787 13.373 0.00861854C10.4832 0.00861854 7.59337 0.00861854 4.70354 0.00861854C4.58001 0.657826 4.45362 1.30703 4.33297 1.95624C3.94517 4.05611 3.56024 6.16172 3.17244 8.25585C2.78177 10.373 2.38822 12.4786 1.99755 14.5928C1.62698 16.6122 1.25929 18.6374 0.885853 20.6568C0.630192 22.0472 0.374531 23.4347 0.11887 24.8192C0.0872712 24.9083 0.0642904 24.9859 0.00109323 25.0433C0.00396583 25.1237 -0.0305053 25.253 0.138978 25.2128C0.173449 25.1956 0.210793 25.2128 0.248137 25.2128C2.94551 25.2128 5.64575 25.2128 8.34599 25.2128C8.29716 25.0663 8.34024 24.9313 8.3661 24.7963C8.64474 23.2307 8.91764 21.6565 9.19628 20.0852C9.4979 18.3904 9.80527 16.6984 10.1069 15.0036C10.3884 13.4064 10.667 11.8236 10.9457 10.2322C10.9888 10.0024 11.0319 9.77545 11.0692 9.54277C11.1611 9.53703 11.1554 9.6031 11.1698 9.65193C11.5432 10.7205 11.9138 11.7949 12.2814 12.8692C13.1892 15.4977 14.0969 18.129 15.0047 20.7603C15.4758 22.1362 15.9526 23.5036 16.4237 24.8824C16.4553 24.9887 16.5099 25.0806 16.5042 25.1984C26.3888 25.1984 36.282 25.1984 46.1724 25.1984C46.1925 24.7991 46.293 24.42 46.3619 24.0465C46.6578 22.4178 46.9623 20.7775 47.2611 19.1487C47.5598 17.5343 47.8586 15.9228 48.1573 14.3113C48.4216 12.8836 48.683 11.453 48.9444 10.0311C49.1943 8.67237 49.45 7.32225 49.6999 5.96638C49.7401 5.74232 49.7229 5.73371 49.9728 5.73371C51.3373 5.73371 52.6989 5.73371 54.0634 5.73371C54.1007 5.73371 54.1352 5.73945 54.1725 5.73945C54.2817 5.72796 54.319 5.78828 54.3047 5.88595C54.2587 6.14736 54.2185 6.40876 54.1697 6.6673C53.7761 8.80164 53.3797 10.9417 52.9833 13.0789C52.5926 15.1788 52.2019 17.2873 51.8141 19.3872C51.547 20.8235 51.2856 22.254 51.0242 23.6903C50.9323 24.1959 50.8432 24.6957 50.7541 25.1927C76.7138 25.1927 102.673 25.1927 128.63 25.1927C128.648 24.8049 128.748 24.4343 128.811 24.0551C129.035 22.7998 129.265 21.5416 129.495 20.2863C129.811 18.557 130.136 16.8305 130.454 15.1012C130.578 14.4348 130.696 13.7597 130.819 13.0933C130.911 13.1019 130.9 13.1795 130.914 13.2369C131.477 15.1156 132.043 17.0058 132.6 18.8959C133.215 20.9585 133.827 23.0124 134.433 25.0692C134.444 25.1065 134.45 25.141 134.456 25.1812C137.225 25.1812 139.989 25.1812 142.752 25.1812C142.456 24.3998 142.175 23.6099 141.873 22.8343C140.954 20.3696 140.023 17.9078 139.101 15.4546C138.983 15.1558 138.989 15.1558 139.299 15.0898C140.072 14.9289 140.839 14.7479 141.563 14.4319C143.562 13.5443 144.863 12.0563 145.478 9.95642C145.688 9.21242 145.783 8.45406 145.811 7.67845C145.846 6.93158 145.8 6.19619 145.633 5.46368ZM41.4096 5.96351C41.3493 6.38004 41.266 6.79369 41.1941 7.20447C40.9643 8.46267 40.7288 9.73523 40.4932 10.9992C40.2318 12.4326 39.9618 13.866 39.6946 15.3023C39.4562 16.6151 39.2149 17.9221 38.9765 19.2349C38.9334 19.4762 38.9334 19.482 38.6806 19.482C34.6417 19.482 30.6057 19.482 26.5726 19.482C26.5008 19.482 26.4261 19.4934 26.3342 19.4417C26.518 18.4277 26.7019 17.4338 26.8829 16.4399C26.9518 16.0808 27.0179 15.7217 27.0839 15.3684C27.1328 15.0984 27.1299 15.0984 27.4057 15.0984C29.833 15.0984 32.2604 15.0984 34.6848 15.0984C35.0497 15.0984 35.0554 15.0984 35.1243 14.7249C35.3714 13.3518 35.6184 11.9845 35.8683 10.6028C35.8885 10.4879 35.9114 10.3787 35.9287 10.258C35.9545 10.0828 35.9517 10.0828 35.7736 10.0742C35.6989 10.0742 35.627 10.0742 35.5552 10.0742C33.1911 10.0742 30.8298 10.0742 28.4657 10.0742C28.1181 10.0742 28.1181 10.0742 28.1755 9.74385C28.391 8.50576 28.6035 7.2648 28.8219 6.02097C28.8707 5.73658 28.8707 5.73083 29.158 5.73083C31.8381 5.73083 34.5211 5.73083 37.2012 5.73083C38.4738 5.73083 39.7464 5.73083 41.0189 5.73083C41.085 5.73083 41.1482 5.73083 41.2114 5.73083C41.4354 5.73657 41.4498 5.75094 41.4096 5.96351ZM137.438 9.6031C137.122 10.4017 136.547 10.9561 135.777 11.3209C135.211 11.5852 134.6 11.7145 133.97 11.7891C133.465 11.8581 132.956 11.8466 132.457 11.8495C132.083 11.8495 131.71 11.8495 131.333 11.8495C131.052 11.8466 131.052 11.8466 131.104 11.5823C131.204 11.0394 131.305 10.4907 131.405 9.9478C131.681 8.47991 131.945 7.01488 132.221 5.54411C132.293 5.12472 132.293 5.12472 132.721 5.12472C133.301 5.12472 133.881 5.1161 134.456 5.17642C135.01 5.23387 135.547 5.33728 136.067 5.54986C137.076 5.975 137.682 6.88849 137.688 7.97721C137.705 8.53162 137.653 9.07741 137.438 9.6031Z" fill="#83BA3B"/>
<path d="M151.625 21.6651C151.729 21.6364 151.806 21.6192 151.887 21.5933C152.628 21.3089 152.823 20.3639 152.263 19.8037C152.051 19.5911 151.786 19.5222 151.496 19.5222C150.896 19.5021 150.298 19.5681 149.704 19.5854C149.324 19.5969 149.324 19.5969 149.345 19.9847C149.345 20.022 149.35 20.0536 149.353 20.091C149.385 20.6913 149.414 21.2802 149.448 21.8748C149.471 22.3402 149.485 22.8027 149.508 23.2623C149.52 23.5869 149.526 23.5754 149.844 23.5639C150.071 23.5582 150.068 23.5295 150.063 23.3284C150.045 22.9463 150.023 22.57 150.008 22.1908C150.002 22.0788 149.945 21.938 150.014 21.849C150.086 21.7513 150.232 21.8203 150.344 21.7915C150.81 21.691 151.174 21.8318 151.467 22.2196C151.729 22.5643 151.976 22.9176 152.234 23.2709C152.286 23.3313 152.318 23.4318 152.41 23.4318C152.605 23.4318 152.812 23.4921 153.03 23.3628C152.585 22.774 152.252 22.119 151.625 21.6651ZM151.258 21.2659C150.927 21.2946 150.591 21.2773 150.255 21.3176C150.226 21.3176 150.195 21.3176 150.175 21.3176C149.974 21.3176 149.985 21.3118 149.959 21.1165C149.933 20.8465 149.956 20.5764 149.913 20.3064C149.873 20.0565 149.902 20.045 150.172 20.0335C150.471 20.0163 150.769 20.0335 151.068 19.9761C151.235 19.9531 151.393 19.9761 151.551 20.0278C151.815 20.0938 151.996 20.3122 152.01 20.5678C152.016 20.8263 151.91 21.0217 151.674 21.1452C151.545 21.2113 151.404 21.2457 151.258 21.2659Z" fill="#83BA3B"/>
<path d="M154.481 20.5017C153.961 18.6719 152.165 17.5028 150.232 17.8446C148.296 18.1836 146.94 20.022 147.219 21.9811C147.434 23.4921 148.296 24.4947 149.715 25.0318C149.885 25.0922 150.068 25.1036 150.226 25.2013C150.663 25.2013 151.097 25.2013 151.533 25.2013C151.832 25.0893 152.145 25.0376 152.43 24.9026C153.507 24.3912 154.199 23.5611 154.509 22.4091C154.547 22.2655 154.509 22.1133 154.587 21.9898C154.587 21.6651 154.587 21.3319 154.587 21.0073C154.501 20.8493 154.527 20.6712 154.481 20.5017ZM150.89 24.5665C149.391 24.5607 147.842 23.3399 147.839 21.51C147.834 19.8152 149.198 18.4593 150.904 18.4593C152.66 18.4593 153.99 19.9559 153.944 21.51C154.01 23.0785 152.593 24.578 150.89 24.5665Z" fill="#83BA3B"/>
</svg>
