<svg width="87" height="38" viewBox="0 0 87 38" fill="none" xmlns="http://www.w3.org/2000/svg">
<path d="M35.1387 35.7259C34.9731 35.2742 34.673 34.9662 34.4557 34.5658C33.928 33.878 33.3072 33.2825 32.6864 32.6871C32.4691 32.6152 32.3759 32.4099 32.169 32.3278C32.0345 32.1532 31.8172 32.0608 31.6413 31.9274C31.2895 31.6605 30.9066 31.4346 30.5134 31.2087C29.7684 30.7365 28.8475 30.4388 27.937 30.1308C26.954 29.8946 25.9192 29.7201 24.8431 29.5764C23.7774 29.4224 22.7116 29.2787 21.9045 28.8577C21.4389 28.7243 21.0974 28.4676 20.6939 28.2623C20.3214 28.0159 19.9178 27.8106 19.6074 27.5026C19.2246 27.2767 18.9866 26.8969 18.6865 26.5889C18.583 26.3835 18.4071 26.2603 18.3243 26.0345C18.2209 25.9934 18.1898 25.8702 18.1277 25.7984C18.0553 25.7162 18.0553 25.552 17.9311 25.5212C17.8691 25.9421 17.8898 26.4451 17.9311 26.8763C17.9829 27.0611 18.0036 27.287 18.0553 27.4718C18.0864 27.636 18.2416 27.903 18.1795 28.0262C14.9511 27.8619 12.592 26.8455 10.5432 25.5109C9.52916 24.8436 8.65999 24.0325 7.85291 23.1599C7.5011 22.6774 7.11825 22.2154 6.80783 21.6815C6.48707 21.158 6.21804 20.5625 5.92831 20.0081C5.45234 18.807 5.00741 17.575 4.84185 16.0658C4.62456 14.6594 4.67629 12.8627 4.99706 11.5589C5.11088 10.8403 5.34887 10.2345 5.55581 9.6083C5.69033 9.32084 5.83519 9.03338 5.95935 8.73566C6.13526 8.48927 6.22838 8.15048 6.44568 7.93488C7.03547 6.83638 7.91499 6.01507 8.8152 5.22456C9.78784 4.51618 10.895 3.94126 12.2298 3.59221C13.5129 3.30475 15.2616 3.25342 16.6481 3.55114C19.4625 4.12606 21.5837 5.37856 23.3635 6.98011C25.1639 8.55086 26.5504 10.5425 27.5024 12.9654C28.4854 15.2651 28.8268 18.848 27.9473 21.4557C27.5851 21.2504 27.223 21.0553 26.8608 20.8602C26.4263 20.737 26.002 20.5933 25.495 20.542C24.8845 20.5317 24.2844 20.542 23.8912 20.737C24.6879 20.6549 25.3294 20.8705 25.8261 21.0553C26.1158 21.1682 26.2814 21.2401 26.509 21.3736C26.954 21.6302 27.3472 21.8663 27.6783 22.2154C28.6199 23.0367 29.2924 24.1249 29.6132 25.5622C29.6132 25.6033 29.665 25.593 29.6546 25.5212C29.696 25.5109 29.7167 25.4801 29.7374 25.439C29.7891 25.3774 29.8512 25.3158 29.9029 25.244C30.0064 25.1208 30.1099 24.9976 30.1823 24.8436C30.3996 24.5869 30.5755 24.2995 30.7411 24.0017C31.1239 23.4474 31.4136 22.8108 31.7448 22.2051C32.3139 20.9116 32.7795 19.5153 33.0692 17.9343C33.6486 14.4232 32.9554 11.0969 31.7448 8.64326C30.5031 6.16907 28.7647 4.18766 26.5194 2.69903C24.2533 1.22068 21.6044 0.132441 17.9622 0.0297775C17.9415 -0.0420871 17.9105 0.0400438 17.838 0.0297775C15.9134 -0.0318207 14.3613 0.235105 12.8196 0.625227C12.1056 0.861353 11.3606 1.06668 10.7294 1.38494C10.0051 1.62106 9.42569 2.01119 8.76346 2.29865C8.52548 2.52451 8.16332 2.63744 7.91499 2.85303C7.59422 3.00702 7.35624 3.25342 7.03547 3.40741C6.51811 3.85913 5.9697 4.25952 5.46269 4.72151C4.96602 5.17323 4.53143 5.68655 4.05546 6.1588C3.98303 6.32306 3.85886 6.43599 3.73469 6.55919C3.65191 6.71318 3.54844 6.84665 3.41393 6.95958C3.36219 7.14437 3.19663 7.21624 3.13455 7.40103C3.00004 7.50369 2.96899 7.70902 2.81378 7.80142C2.67927 8.12994 2.44128 8.36607 2.28607 8.67406C2.09982 8.97178 1.95496 9.30031 1.76871 9.58777C1.47899 10.2551 1.16857 10.9019 0.930581 11.6205C0.682247 12.3186 0.475301 13.0578 0.33044 13.8586C0.175231 14.608 0.0303689 15.5833 0.0510634 16.3738C-0.0524093 16.6613 0.0303689 17.1951 0.0510634 17.5339C0.0510634 17.5955 0.00967435 17.6161 0.00967435 17.6571C0.00967435 18.037 0.113147 18.499 0.133842 18.7351C0.21662 19.6077 0.371829 20.4188 0.620163 21.1272C0.775372 21.9177 1.10648 22.5337 1.34447 23.242C1.70663 23.8375 1.95496 24.5459 2.38955 25.0797C2.71031 25.706 3.16559 26.1988 3.60018 26.7121C4.0658 27.2049 4.53143 27.7079 5.09018 28.1083C6.11456 28.9912 7.31485 29.6996 8.62895 30.3053C11.0813 31.4859 14.7442 32.2559 18.0346 32.0609C18.8727 31.9479 19.7212 31.8453 20.4869 31.6605C21.1905 31.4038 22.008 31.2498 22.8564 31.1471C24.7914 31.0239 26.4676 31.1985 27.9577 31.6297C29.4684 32.0301 30.7721 32.6358 31.9 33.4263C32.5001 33.7753 32.9968 34.2271 33.5038 34.6582C34.0212 35.0997 34.435 35.6438 34.911 36.1366C34.9731 36.3214 35.0973 36.4549 35.1904 36.6191C35.3146 36.7526 35.2525 37.0606 35.5525 37.0195C35.7388 36.8347 35.5215 36.5678 35.5112 36.3419C35.3249 36.1469 35.2835 35.8902 35.1387 35.7259V35.7259Z" fill="white"/>
<path d="M27.6277 24.8023C27.5863 24.8023 27.576 24.8331 27.5449 24.8433C27.4725 24.9973 27.5035 25.2437 27.5449 25.3977C27.7622 25.8392 27.8346 26.4141 28.3106 26.5989C28.5383 26.527 28.5176 26.1985 28.5072 25.8802C28.4037 25.4901 28.2589 25.1411 28.0209 24.8844C27.8553 24.8228 27.7415 24.7202 27.6277 24.8023V24.8023ZM24.8132 25.9213C24.8132 25.9008 24.7822 25.8802 24.7718 25.9213C24.3786 25.87 24.2441 26.0856 24.0475 26.2396C23.706 27.1327 24.2545 28.0054 25.2168 27.9951C25.5996 27.9027 25.8376 27.6563 25.8997 27.2354C25.8479 26.486 25.5272 26.0034 24.8132 25.9213V25.9213Z" fill="white"/>
<path d="M48.0116 23.0775C48.1668 23.7243 48.4979 24.1863 48.8704 24.6175C49.2429 25.0487 49.6775 25.408 50.2052 25.6749C50.7019 25.9829 51.24 26.2396 51.8608 26.4141C52.1609 26.5168 52.4506 26.64 52.8231 26.681C53.0818 26.8247 53.3922 26.8966 53.4129 27.2662C53.4026 27.7077 53.1025 27.8719 52.7196 27.954C52.3368 27.8719 51.8608 27.8822 51.54 27.7385C50.733 27.6461 50.0811 27.3894 49.3982 27.1533C48.0944 26.6502 46.9976 25.9213 46.087 25.0281C45.9008 24.7201 45.6421 24.4737 45.4455 24.176C45.2489 23.8783 45.1144 23.519 44.9074 23.2213C43.314 23.0159 42.2275 22.2973 41.2755 21.4657C40.396 20.4699 39.6924 19.279 39.4027 17.6979C39.0612 16.1785 39.1647 14.2792 39.5682 12.8112C40.4478 9.96737 42.2896 8.07836 45.7663 7.8217C46.7286 7.8525 47.5667 7.96543 48.3324 8.25289C49.1084 8.53008 49.8431 9.0434 50.4225 9.57725C50.4743 9.61832 50.495 9.62858 50.526 9.67991C50.6502 9.85444 50.9502 10.1008 51.1158 10.3164C51.1468 10.3575 51.1365 10.4294 51.1675 10.4807C51.2296 10.5731 51.3228 10.6142 51.3848 10.6963C51.4159 10.7476 51.4055 10.8092 51.4366 10.8503C51.478 10.9119 51.5297 11.0043 51.5918 11.1172C51.6125 11.1583 51.6849 11.1891 51.6953 11.2199C51.7884 11.3944 51.8298 11.61 51.9125 11.8051C51.9953 12.0104 52.1091 12.1849 52.1816 12.3902C52.3885 12.996 52.523 13.7146 52.6058 14.4538C52.8128 16.5892 52.3885 18.4987 51.5918 19.9155C51.2193 20.6547 50.7019 21.2604 50.0914 21.7737C49.5327 22.3589 48.767 22.7079 48.0116 23.0775V23.0775ZM45.4455 9.71071C44.9799 9.74151 44.7005 9.95711 44.3176 10.0803C44.0693 10.3062 43.7589 10.4807 43.5726 10.7681C43.2622 10.9427 43.1794 11.3328 42.9311 11.5587C42.7242 12.072 42.5276 12.6469 42.393 13.3142C42.2689 13.9713 42.1861 14.7104 42.1758 15.4393C42.1654 17.2668 42.5586 19.0839 43.2933 20.1619C43.7278 20.6855 44.2556 21.1166 44.8971 21.4349C45.2696 21.4657 45.5593 21.5889 45.9629 21.5992C46.1905 21.517 46.563 21.5992 46.7079 21.4349C47.039 21.4554 47.1114 21.2398 47.4011 21.2193C47.5563 21.0653 47.7219 20.9421 47.9392 20.8497C48.1358 20.6341 48.322 20.4185 48.529 20.2132C48.6325 20.0592 48.6945 19.8436 48.8498 19.7307C49.781 17.9649 49.8845 14.731 49.274 12.6777C49.0464 11.9282 48.7256 11.3225 48.3634 10.8195C47.9702 10.4191 47.5046 10.0803 46.9769 9.81338C46.5527 9.72098 46.1491 9.60805 45.5904 9.65938C45.5593 9.65938 45.5283 9.66965 45.5386 9.71071C45.5179 9.71071 45.4869 9.71071 45.4455 9.71071V9.71071ZM56.7344 8.22209C57.5725 8.25289 58.5555 8.15022 59.3005 8.27342C59.4661 8.53008 59.404 8.83807 59.404 9.12553C59.4661 13.0165 59.404 17.1949 59.404 21.168C59.404 21.4862 59.4143 21.8148 59.404 22.1228C59.3936 22.3897 59.4661 22.6771 59.3005 22.9235C58.928 23.0159 58.3899 22.9749 57.914 22.9749C57.407 22.9749 56.9103 23.0467 56.5792 22.8722C56.486 18.1702 56.486 13.0986 56.5792 8.38635C56.5999 8.30422 56.6516 8.25289 56.7344 8.22209V8.22209ZM63.1497 8.22209H65.6641C65.8917 8.53008 65.9642 8.99207 66.0366 9.44379C66.7919 12.2978 67.5369 15.1622 68.2302 18.0881C68.3958 18.1086 68.344 17.9135 68.3958 17.8211C68.4682 17.7493 68.4268 17.5748 68.4992 17.5029C68.5303 17.2668 68.6751 17.1436 68.6648 16.8664C68.851 16.507 68.9131 16.0143 69.089 15.6447C69.3063 14.7823 69.5961 13.9815 69.8444 13.1499C70.0824 12.2876 70.4031 11.5073 70.5894 10.6039C70.9412 9.87497 71.024 8.87914 71.4482 8.22209H72.514C72.8968 8.94074 73.0417 9.89551 73.3728 10.6655C73.5901 11.5279 73.8902 12.3081 74.1178 13.1602C74.6455 14.8131 75.1939 16.4455 75.6699 18.1497C75.8872 17.8314 75.8872 17.2976 76.0424 16.928C76.1355 16.507 76.2183 16.0759 76.3632 15.7063C76.7771 14.0226 77.1703 12.3286 77.6462 10.7168C77.8221 9.87498 77.998 9.0126 78.2878 8.27342C78.9086 8.18102 79.8606 8.18102 80.4814 8.27342C80.5331 8.89967 80.2434 9.57725 80.0571 10.1316C79.9537 10.8092 79.7053 11.3328 79.5708 11.9898C79.188 13.191 78.8983 14.464 78.5051 15.6549C78.205 16.928 77.8014 18.0983 77.491 19.3714C77.2841 19.9565 77.1392 20.6033 76.953 21.2296C76.746 21.8045 76.6736 22.5129 76.3632 22.9851H74.8628C74.48 22.3178 74.3454 21.4144 74.004 20.706C73.259 18.3653 72.4312 16.1169 71.7069 13.7557C71.4586 14.0123 71.4586 14.5359 71.2827 14.8644C71.1688 15.2648 71.055 15.6652 70.9102 16.0348C70.7032 16.8458 70.3928 17.5337 70.2169 18.3653C69.9168 19.0942 69.6995 19.9052 69.4719 20.706C69.1615 21.4041 69.0476 22.2973 68.6648 22.9338C68.2716 23.057 67.6508 22.9543 67.1644 22.9851C66.7919 22.5642 66.7505 21.8045 66.5229 21.2296C66.347 20.6341 66.2228 19.9771 65.9952 19.4227C65.7055 18.1291 65.2709 16.9896 64.9812 15.7063C64.5983 14.5154 64.2672 13.2731 63.9154 12.0412C63.7188 11.456 63.5739 10.8297 63.3773 10.2343C63.2842 9.59778 62.8496 9.02287 63.0048 8.32475C63.0255 8.27342 63.0876 8.24262 63.1497 8.22209V8.22209ZM84.2685 8.22209C85.1066 8.25289 86.0793 8.15022 86.8346 8.27342C87.0209 8.82781 86.9381 9.42325 86.9381 10.0187V21.1577C86.9381 21.7634 87.0105 22.3486 86.8346 22.9133C86.2552 22.9749 85.4067 23.0057 84.6927 22.9646C84.4858 22.9543 84.2375 23.0159 84.1029 22.8619C83.9167 22.3075 83.9995 21.7224 83.9995 21.1064V10.0803C83.9995 9.41299 83.9374 8.76621 84.1029 8.32475C84.1443 8.27342 84.2064 8.24262 84.2685 8.22209V8.22209Z" fill="white"/>
</svg>
