<svg width="87" height="38" viewBox="0 0 87 38" fill="none" xmlns="http://www.w3.org/2000/svg">
<path d="M35.1386 35.726C34.973 35.2742 34.673 34.9662 34.4557 34.5659C33.928 33.878 33.3071 33.2826 32.6863 32.6871C32.469 32.6152 32.3759 32.4099 32.1689 32.3278C32.0344 32.1533 31.8171 32.0609 31.6412 31.9274C31.2894 31.6605 30.9066 31.4346 30.5134 31.2087C29.7684 30.7365 28.8474 30.4388 27.9369 30.1308C26.9539 29.8947 25.9192 29.7201 24.843 29.5764C23.7773 29.4224 22.7115 29.2787 21.9044 28.8578C21.4388 28.7243 21.0973 28.4676 20.6938 28.2623C20.3213 28.0159 19.9177 27.8106 19.6073 27.5026C19.2245 27.2767 18.9865 26.8969 18.6864 26.5889C18.5829 26.3836 18.407 26.2604 18.3243 26.0345C18.2208 25.9934 18.1897 25.8702 18.1277 25.7984C18.0552 25.7162 18.0552 25.552 17.9311 25.5212C17.869 25.9421 17.8897 26.4452 17.9311 26.8763C17.9828 27.0611 18.0035 27.287 18.0552 27.4718C18.0863 27.6361 18.2415 27.903 18.1794 28.0262C14.951 27.8619 12.5919 26.8455 10.5431 25.5109C9.52906 24.8436 8.65989 24.0326 7.8528 23.1599C7.50099 22.6774 7.11814 22.2154 6.80772 21.6816C6.48695 21.158 6.21793 20.5625 5.9282 20.0081C5.45223 18.807 5.00729 17.575 4.84174 16.0658C4.62444 14.6594 4.67618 12.8627 4.99695 11.5589C5.11077 10.8403 5.34875 10.2346 5.5557 9.6083C5.69021 9.32084 5.83508 9.03339 5.95924 8.73566C6.13515 8.48927 6.22827 8.15048 6.44557 7.93488C7.03536 6.83638 7.91488 6.01507 8.81509 5.22456C9.78774 4.51618 10.8949 3.94127 12.2297 3.59221C13.5128 3.30475 15.2615 3.25342 16.648 3.55114C19.4625 4.12606 21.5836 5.37856 23.3634 6.98011C25.1638 8.55087 26.5503 10.5425 27.5023 12.9654C28.4853 15.2651 28.8268 18.848 27.9472 21.4557C27.5851 21.2504 27.2229 21.0553 26.8608 20.8602C26.4262 20.737 26.0019 20.5933 25.4949 20.542C24.8844 20.5317 24.2843 20.542 23.8911 20.737C24.6878 20.6549 25.3294 20.8705 25.826 21.0553C26.1158 21.1682 26.2813 21.2401 26.509 21.3736C26.9539 21.6302 27.3471 21.8663 27.6782 22.2154C28.6198 23.0367 29.2924 24.125 29.6131 25.5622C29.6131 25.6033 29.6649 25.593 29.6545 25.5212C29.6959 25.5109 29.7166 25.4801 29.7373 25.439C29.789 25.3774 29.8511 25.3159 29.9029 25.244C30.0063 25.1208 30.1098 24.9976 30.1822 24.8436C30.3995 24.5869 30.5754 24.2995 30.741 24.0018C31.1238 23.4474 31.4136 22.8109 31.7447 22.2051C32.3138 20.9116 32.7794 19.5154 33.0691 17.9343C33.6486 14.4232 32.9553 11.0969 31.7447 8.64326C30.503 6.16907 28.7647 4.18766 26.5193 2.69903C24.2533 1.22068 21.6043 0.132441 17.9621 0.0297775C17.9414 -0.0420871 17.9104 0.0400439 17.8379 0.0297775C15.9133 -0.0318207 14.3612 0.235105 12.8195 0.625227C12.1055 0.861354 11.3605 1.06668 10.7293 1.38494C10.005 1.62107 9.42558 2.01119 8.76336 2.29865C8.52537 2.52451 8.16322 2.63744 7.91488 2.85303C7.59412 3.00703 7.35613 3.25342 7.03536 3.40741C6.518 3.85913 5.96959 4.25952 5.46257 4.72151C4.9659 5.17323 4.53132 5.68655 4.05534 6.1588C3.98291 6.32306 3.85874 6.43599 3.73458 6.55919C3.6518 6.71319 3.54833 6.84665 3.41381 6.95958C3.36207 7.14437 3.19652 7.21624 3.13443 7.40103C2.99992 7.5037 2.96888 7.70902 2.81367 7.80142C2.67915 8.12995 2.44117 8.36607 2.28596 8.67406C2.0997 8.97179 1.95484 9.30031 1.76859 9.58777C1.47887 10.2551 1.16845 10.9019 0.930461 11.6205C0.682126 12.3186 0.47518 13.0578 0.330318 13.8586C0.175109 14.608 0.0302469 15.5833 0.0509415 16.3738C-0.0525314 16.6613 0.0302469 17.1952 0.0509415 17.5339C0.0509415 17.5955 0.0095523 17.6161 0.0095523 17.6571C0.0095523 18.037 0.113025 18.499 0.13372 18.7351C0.216498 19.6077 0.371707 20.4188 0.620042 21.1272C0.775252 21.9177 1.10636 22.5337 1.34435 23.242C1.70651 23.8375 1.95484 24.5459 2.38943 25.0797C2.71019 25.706 3.16548 26.1988 3.60006 26.7121C4.06569 27.2049 4.53132 27.7079 5.09007 28.1083C6.11445 28.9912 7.31474 29.6996 8.62884 30.3053C11.0812 31.4859 14.7441 32.2559 18.0345 32.0609C18.8727 31.9479 19.7211 31.8453 20.4868 31.6605C21.1905 31.4038 22.0079 31.2498 22.8564 31.1472C24.7913 31.024 26.4676 31.1985 27.9576 31.6297C29.4683 32.0301 30.772 32.6358 31.8999 33.4263C32.5 33.7753 32.9967 34.2271 33.5037 34.6583C34.0211 35.0997 34.435 35.6438 34.911 36.1366C34.973 36.3214 35.0972 36.4549 35.1903 36.6191C35.3145 36.7526 35.2524 37.0606 35.5525 37.0195C35.7387 36.8347 35.5214 36.5678 35.5111 36.3419C35.3248 36.1469 35.2835 35.8902 35.1386 35.726V35.726Z" fill="#FCB316"/>
<path d="M27.6274 24.8023C27.586 24.8023 27.5757 24.8331 27.5446 24.8433C27.4722 24.9973 27.5032 25.2437 27.5446 25.3977C27.7619 25.8392 27.8344 26.4141 28.3103 26.5989C28.538 26.527 28.5173 26.1985 28.5069 25.8802C28.4035 25.4901 28.2586 25.1411 28.0206 24.8844C27.855 24.8228 27.7412 24.7201 27.6274 24.8023V24.8023ZM24.8129 25.9213C24.8129 25.9008 24.7819 25.8802 24.7715 25.9213C24.3783 25.87 24.2438 26.0856 24.0472 26.2396C23.7058 27.1327 24.2542 28.0054 25.2165 27.9951C25.5993 27.9027 25.8373 27.6563 25.8994 27.2354C25.8477 26.486 25.5269 26.0034 24.8129 25.9213V25.9213Z" fill="#FCB316"/>
<path d="M48.0115 23.0775C48.1667 23.7243 48.4978 24.1863 48.8703 24.6175C49.2428 25.0487 49.6774 25.408 50.2051 25.6749C50.7018 25.9829 51.2399 26.2396 51.8607 26.4141C52.1608 26.5168 52.4505 26.64 52.823 26.681C53.0817 26.8247 53.3921 26.8966 53.4128 27.2662C53.4024 27.7077 53.1024 27.8719 52.7195 27.954C52.3367 27.8719 51.8607 27.8822 51.5399 27.7385C50.7328 27.6461 50.081 27.3894 49.398 27.1533C48.0943 26.6502 46.9975 25.9213 46.0869 25.0281C45.9007 24.7201 45.642 24.4737 45.4454 24.176C45.2488 23.8783 45.1143 23.519 44.9073 23.2213C43.3138 23.0159 42.2274 22.2973 41.2754 21.4657C40.3959 20.4699 39.6923 19.279 39.4026 17.6979C39.0611 16.1785 39.1646 14.2792 39.5681 12.8112C40.4476 9.96737 42.2895 8.07836 45.7661 7.8217C46.7284 7.8525 47.5666 7.96543 48.3323 8.25289C49.1083 8.53008 49.843 9.0434 50.4224 9.57725C50.4742 9.61832 50.4949 9.62858 50.5259 9.67991C50.6501 9.85444 50.9501 10.1008 51.1157 10.3164C51.1467 10.3575 51.1364 10.4294 51.1674 10.4807C51.2295 10.5731 51.3226 10.6142 51.3847 10.6963C51.4158 10.7476 51.4054 10.8092 51.4365 10.8503C51.4778 10.9119 51.5296 11.0043 51.5917 11.1172C51.6124 11.1583 51.6848 11.1891 51.6951 11.2199C51.7883 11.3944 51.8297 11.61 51.9124 11.8051C51.9952 12.0104 52.109 12.1849 52.1815 12.3902C52.3884 12.996 52.5229 13.7146 52.6057 14.4538C52.8126 16.5892 52.3884 18.4987 51.5917 19.9155C51.2192 20.6547 50.7018 21.2604 50.0913 21.7737C49.5326 22.3589 48.7669 22.7079 48.0115 23.0775V23.0775ZM45.4454 9.71071C44.9798 9.74151 44.7004 9.95711 44.3175 10.0803C44.0692 10.3062 43.7588 10.4807 43.5725 10.7681C43.2621 10.9427 43.1793 11.3328 42.931 11.5587C42.724 12.072 42.5274 12.6469 42.3929 13.3142C42.2688 13.9713 42.186 14.7104 42.1756 15.4393C42.1653 17.2668 42.5585 19.0839 43.2931 20.1619C43.7277 20.6855 44.2554 21.1166 44.897 21.4349C45.2695 21.4657 45.5592 21.5889 45.9627 21.5992C46.1904 21.517 46.5629 21.5992 46.7077 21.4349C47.0389 21.4554 47.1113 21.2398 47.401 21.2193C47.5562 21.0653 47.7218 20.9421 47.9391 20.8497C48.1357 20.6341 48.3219 20.4185 48.5289 20.2132C48.6323 20.0592 48.6944 19.8436 48.8496 19.7307C49.7809 17.9649 49.8844 14.731 49.2739 12.6777C49.0462 11.9282 48.7255 11.3225 48.3633 10.8195C47.9701 10.4191 47.5045 10.0803 46.9768 9.81338C46.5525 9.72098 46.149 9.60805 45.5902 9.65938C45.5592 9.65938 45.5282 9.66965 45.5385 9.71071C45.5178 9.71071 45.4868 9.71071 45.4454 9.71071V9.71071ZM56.7343 8.22209C57.5724 8.25289 58.5554 8.15022 59.3004 8.27342C59.466 8.53008 59.4039 8.83807 59.4039 9.12553C59.466 13.0165 59.4039 17.1949 59.4039 21.168C59.4039 21.4862 59.4142 21.8148 59.4039 22.1227C59.3935 22.3897 59.466 22.6771 59.3004 22.9235C58.9279 23.0159 58.3898 22.9749 57.9139 22.9749C57.4068 22.9749 56.9102 23.0467 56.5791 22.8722C56.4859 18.1702 56.4859 13.0986 56.5791 8.38635C56.5998 8.30422 56.6515 8.25289 56.7343 8.22209V8.22209ZM63.1496 8.22209H65.664C65.8916 8.53008 65.9641 8.99207 66.0365 9.44379C66.7918 12.2978 67.5368 15.1622 68.2301 18.0881C68.3957 18.1086 68.3439 17.9135 68.3957 17.8211C68.4681 17.7493 68.4267 17.5747 68.4991 17.5029C68.5302 17.2668 68.675 17.1436 68.6647 16.8664C68.8509 16.507 68.913 16.0143 69.0889 15.6447C69.3062 14.7823 69.596 13.9815 69.8443 13.1499C70.0823 12.2876 70.403 11.5073 70.5893 10.6039C70.9411 9.87497 71.0239 8.87914 71.4481 8.22209H72.5139C72.8967 8.94074 73.0416 9.89551 73.3727 10.6655C73.59 11.5279 73.8901 12.3081 74.1177 13.1602C74.6454 14.8131 75.1938 16.4454 75.6698 18.1497C75.8871 17.8314 75.8871 17.2976 76.0423 16.928C76.1354 16.507 76.2182 16.0759 76.3631 15.7063C76.777 14.0226 77.1702 12.3286 77.6461 10.7168C77.822 9.87498 77.998 9.0126 78.2877 8.27342C78.9085 8.18102 79.8605 8.18102 80.4813 8.27342C80.533 8.89967 80.2433 9.57725 80.0571 10.1316C79.9536 10.8092 79.7053 11.3328 79.5707 11.9898C79.1879 13.191 78.8982 14.464 78.505 15.6549C78.2049 16.928 77.8014 18.0983 77.4909 19.3714C77.284 19.9565 77.1391 20.6033 76.9529 21.2296C76.7459 21.8045 76.6735 22.5129 76.3631 22.9851H74.8627C74.4799 22.3178 74.3454 21.4144 74.0039 20.706C73.2589 18.3653 72.4311 16.1169 71.7068 13.7557C71.4585 14.0123 71.4585 14.5359 71.2826 14.8644C71.1687 15.2648 71.0549 15.6652 70.9101 16.0348C70.7031 16.8458 70.3927 17.5337 70.2168 18.3653C69.9167 19.0942 69.6994 19.9052 69.4718 20.706C69.1614 21.4041 69.0475 22.2973 68.6647 22.9338C68.2715 23.057 67.6507 22.9543 67.1643 22.9851C66.7918 22.5642 66.7504 21.8045 66.5228 21.2296C66.3469 20.6341 66.2227 19.9771 65.9951 19.4227C65.7054 18.1291 65.2708 16.9896 64.9811 15.7063C64.5982 14.5154 64.2671 13.2731 63.9153 12.0412C63.7187 11.456 63.5738 10.8297 63.3772 10.2343C63.2841 9.59778 62.8495 9.02287 63.0047 8.32475C63.0254 8.27342 63.0875 8.24262 63.1496 8.22209V8.22209ZM84.2684 8.22209C85.1065 8.25289 86.0792 8.15022 86.8345 8.27342C87.0208 8.82781 86.938 9.42325 86.938 10.0187V21.1577C86.938 21.7634 87.0104 22.3486 86.8345 22.9133C86.2551 22.9749 85.4066 23.0057 84.6927 22.9646C84.4857 22.9543 84.2374 23.0159 84.1029 22.8619C83.9166 22.3075 83.9994 21.7224 83.9994 21.1064V10.0803C83.9994 9.41299 83.9373 8.76621 84.1029 8.32475C84.1442 8.27342 84.2063 8.24262 84.2684 8.22209V8.22209Z" fill="#0269B3"/>
</svg>
