<svg width="82" height="28" viewBox="0 0 82 28" fill="none" xmlns="http://www.w3.org/2000/svg">
<path d="M64.7551 2.63768L71.3493 1.45073V27.0362H64.7551V2.63768ZM75.3058 2.63768V27.0362H81.9V1.45073L75.3058 2.63768ZM55.5232 27.0362H62.1174V8.57246H55.5232V27.0362ZM10.4188 11.0783C9.49565 11.0783 7.51739 10.9464 7.51739 9.1C7.51739 6.98985 10.4188 6.98985 11.4739 6.98985C13.3203 6.98985 15.8261 7.51739 17.5406 8.04493C17.5406 8.04493 18.7275 8.44058 19.5188 8.70435H19.7826V8.57246V2.76957L19.5188 2.63768C17.4087 1.97826 14.9029 1.18696 10.5507 1.18696C2.90145 1.45072 0.131882 5.93478 0.131882 9.75942C0.131882 12.0014 1.05507 17.1449 9.8913 17.8043C10.6826 17.8043 12.6609 17.9362 12.6609 19.7826C12.6609 21.3652 10.8145 22.1565 8.04493 22.1565C5.01159 22.1565 2.76956 21.3652 0.131882 20.7058V26.7725C2.76956 27.4319 5.93478 27.8275 9.49565 27.8275C17.013 27.8275 20.442 23.6072 20.442 19.387C20.442 14.6391 16.7493 11.6058 10.4188 11.0783ZM51.4348 8.17681C45.1043 8.3087 42.3348 11.2101 42.3348 16.7493V27.0362H48.929V18.7275C48.929 15.4304 48.929 13.9797 52.8855 13.8478V8.30869C52.8855 8.04493 51.4348 8.17681 51.4348 8.17681ZM33.1029 8.57246C32.971 8.57246 31.7841 11.8696 29.1464 15.0348V1.45073L22.5522 2.90145V27.0362H29.1464V19.9145C31.7841 22.9478 32.3116 27.0362 32.3116 27.0362H40.7522C39.9609 24.3986 36.2681 17.5406 36.2681 17.5406C39.5652 13.4522 41.0159 8.57246 41.1478 8.57246H33.1029V8.57246ZM58.8203 6.5942C60.6667 6.5942 62.1174 5.14348 62.1174 3.2971C62.1174 1.45072 60.6667 0 58.8203 0C56.9739 0 55.5232 1.45072 55.5232 3.2971C55.5232 5.14348 56.9739 6.5942 58.8203 6.5942Z" fill="white"/>
<path d="M67.3928 2.11015L71.3493 1.45073V27.0362H64.7551L67.3928 2.11015ZM77.6797 2.24203L75.3058 27.0362H81.9V1.45073L77.6797 2.24203ZM55.5232 27.0362H62.1174V8.57246H59.3478L55.5232 27.0362ZM0.131884 9.75942C0.131884 12.0014 1.05507 17.1449 9.75942 17.8043C10.5507 17.8043 13.7159 17.9362 13.7159 19.7826C13.7159 21.3652 10.5507 22.1565 7.91304 22.1565C4.87971 22.1565 2.63768 21.3652 0 20.7058V26.7725C2.63768 27.4319 5.8029 27.8275 9.36377 27.8275C16.8812 27.8275 20.3101 23.6072 20.3101 19.387C20.3101 14.6391 16.6174 11.6058 10.287 11.0783C9.36377 11.0783 7.51739 10.9464 7.51739 9.1C7.51739 6.98985 10.4188 6.98985 11.4739 6.98985C13.3203 6.98985 15.8261 7.51739 17.5406 8.04493C17.5406 8.04493 18.7275 8.44058 19.5188 8.70435H19.7826V8.57246V2.76957L19.5188 2.63768C17.4087 1.97826 14.9029 1.18696 10.5507 1.18696L0.131884 9.75942ZM42.3348 16.4855V27.0362H48.929V18.7275C48.929 15.4304 48.929 13.9797 52.8855 13.8478V8.30869C52.8855 8.17681 51.4348 8.17681 51.4348 8.17681L42.3348 16.4855ZM22.5522 27.0362H29.1464V19.9145C31.7841 22.9478 34.8174 27.0362 34.8174 27.0362H40.6203C39.829 24.3986 36.1362 17.5406 36.1362 17.5406C39.4333 13.4522 40.8841 8.57246 41.0159 8.57246H37.0594C36.9275 8.57246 31.7841 11.8696 29.1464 15.0348V1.97826L22.5522 27.0362ZM58.8203 6.5942C60.6667 6.5942 62.1174 5.14348 62.1174 3.2971C62.1174 1.45072 60.6667 0 58.8203 0" fill="white"/>
</svg>
