<svg width="81" height="26" viewBox="0 0 81 26" fill="none" xmlns="http://www.w3.org/2000/svg">
<path d="M34.7001 25.6H28.2001L32.2001 0.5H38.7001L34.7001 25.6Z" fill="white"/>
<path d="M58.1998 1.1C56.2998 0.400004 54.3998 3.8147e-06 52.3998 3.8147e-06C45.9998 3.8147e-06 41.4998 3.4 41.4998 8.3C41.4998 11.9 44.6998 13.9 47.1998 15.1C49.6998 16.3 50.5998 17.1 50.5998 18.2C50.5998 19.9 48.5998 20.7 46.6998 20.7C44.5998 20.8 42.4998 20.3 40.5998 19.4L39.5998 19L38.6998 24.6C40.9998 25.5 43.4998 25.9 45.8998 25.9C52.6998 25.9 57.0998 22.5 57.1998 17.3C57.1998 14.4 55.4998 12.3 51.7998 10.5C49.4998 9.4 48.0998 8.6 48.0998 7.4C48.0998 6.2 49.2998 5.2 51.7998 5.2C53.4998 5.2 55.0998 5.5 56.5998 6.2L57.1998 6.5L58.1998 1.1Z" fill="white"/>
<path d="M66.8002 16.7L69.4002 9.70001C69.4002 9.70001 69.9001 8.2 70.2001 7.3L70.6001 9.5C70.6001 9.5 71.8001 15.5 72.1001 16.7H66.8002ZM74.8001 0.500004H69.8002C68.3002 0.300004 66.9002 1.2 66.4002 2.6L56.8002 25.6H63.6002L65.0002 21.8H73.3001C73.5001 22.7 74.1001 25.6 74.1001 25.6H80.1001L74.8001 0.500004Z" fill="white"/>
<path d="M22.8 0.5L16.5 17.6L15.8 14.1C14.2 9.6 11 5.9 6.79999 3.6L12.6 25.5H19.5L29.7 0.5H22.8Z" fill="white"/>
<path d="M10.5 0.5H0.1L0 1C8.1 3.1 13.5 8.1 15.7 14.1L13.5 2.6C13.1 1 12 0.6 10.5 0.5Z" fill="white"/>
</svg>
