<svg width="81" height="26" viewBox="0 0 81 26" fill="none" xmlns="http://www.w3.org/2000/svg">
<path d="M34.7 25.6H28.2L32.2 0.5H38.7L34.7 25.6Z" fill="#00579F"/>
<path d="M58.2 1.1C56.3 0.4 54.4 0 52.4 0C46 0 41.5 3.4 41.5 8.3C41.5 11.9 44.7 13.9 47.2 15.1C49.7 16.3 50.6 17.1 50.6 18.2C50.6 19.9 48.6 20.7 46.7 20.7C44.6 20.8 42.5 20.3 40.6 19.4L39.6 19L38.7 24.6C41 25.5 43.5 25.9 45.9 25.9C52.7 25.9 57.1 22.5 57.2 17.3C57.2 14.4 55.5 12.3 51.8 10.5C49.5 9.4 48.1 8.6 48.1 7.4C48.1 6.2 49.3 5.2 51.8 5.2C53.5 5.2 55.1 5.5 56.6 6.2L57.2 6.5L58.2 1.1Z" fill="#00579F"/>
<path d="M66.8 16.7L69.4 9.7C69.4 9.7 69.9 8.2 70.2 7.3L70.6 9.5C70.6 9.5 71.8 15.5 72.1 16.7H66.8ZM74.8 0.500001H69.8C68.3 0.300001 66.9 1.2 66.4 2.6L56.8 25.6H63.6L65 21.8H73.3C73.5 22.7 74.1 25.6 74.1 25.6H80.1L74.8 0.500001Z" fill="#00579F"/>
<path d="M22.8 0.5L16.5 17.6L15.8 14.1C14.2 9.6 11 5.9 6.79999 3.6L12.6 25.5H19.5L29.7 0.5H22.8Z" fill="#00579F"/>
<path d="M10.5 0.5H0.1L0 1C8.1 3.1 13.5 8.1 15.7 14.1L13.5 2.6C13.1 1 12 0.6 10.5 0.5Z" fill="#FAA61A"/>
</svg>
