<svg width="53" height="30" viewBox="0 0 53 30" fill="none" xmlns="http://www.w3.org/2000/svg">
<path d="M52.3025 27.0933C52.2389 26.9561 52.1795 26.8423 52.1244 26.7511C51.2121 25.108 49.4688 23.0913 46.8954 20.7003L46.841 20.6456L46.8138 20.6187L46.7863 20.5912H46.7587C45.5907 19.4778 44.8511 18.7292 44.5414 18.346C43.9747 17.6159 43.8478 16.8768 44.1575 16.128C44.3763 15.5623 45.1983 14.3675 46.6214 12.5421C47.37 11.5747 47.9629 10.7993 48.4007 10.2152C51.5585 6.01717 52.9275 3.33459 52.5075 2.16638L52.3444 1.89338C52.2348 1.72903 51.9519 1.57867 51.4961 1.44155C51.0393 1.30472 50.4554 1.28209 49.7435 1.37328L41.8591 1.42775C41.7314 1.38249 41.549 1.3867 41.3114 1.44155C41.0741 1.4964 40.9554 1.52392 40.9554 1.52392L40.8182 1.59248L40.7092 1.67485C40.6179 1.72931 40.5175 1.82511 40.4079 1.96204C40.2989 2.09849 40.2077 2.25862 40.1349 2.4411C39.2765 4.64951 38.3005 6.70277 37.2052 8.60079C36.5298 9.73256 35.9096 10.7134 35.3432 11.5439C34.7776 12.3741 34.303 12.9858 33.92 13.3779C33.5365 13.7703 33.1903 14.0848 32.8794 14.3223C32.5691 14.5599 32.3321 14.6603 32.168 14.6236C32.0036 14.5868 31.8487 14.5504 31.7021 14.514C31.4468 14.3496 31.2414 14.1261 31.0865 13.8432C30.931 13.5603 30.8263 13.2043 30.7715 12.7754C30.7171 12.3462 30.6848 11.977 30.6756 11.6666C30.6671 11.3566 30.671 10.9181 30.6895 10.3524C30.7085 9.78636 30.7171 9.40338 30.7171 9.20259C30.7171 8.50893 30.7306 7.75611 30.7577 6.94393C30.7853 6.13175 30.8077 5.48824 30.8264 5.01417C30.845 4.53962 30.8536 4.03755 30.8536 3.50824C30.8536 2.97894 30.8214 2.56383 30.7577 2.26255C30.6948 1.96165 30.5983 1.66958 30.471 1.38642C30.343 1.10355 30.1556 0.884728 29.9098 0.729389C29.6634 0.574241 29.3572 0.45112 28.9927 0.359642C28.0253 0.140728 26.7934 0.022306 25.2965 0.00389536C21.9019 -0.0325423 19.7207 0.186659 18.7534 0.661211C18.3702 0.861715 18.0233 1.13567 17.7132 1.48221C17.3846 1.88389 17.3388 2.10309 17.576 2.13914C18.6712 2.30321 19.4466 2.69568 19.9029 3.31618L20.0674 3.64498C20.1953 3.88221 20.323 4.3022 20.4508 4.90438C20.5785 5.50656 20.6608 6.1727 20.6971 6.90241C20.7882 8.23497 20.7882 9.37567 20.6971 10.3246C20.6057 11.2739 20.5194 12.0129 20.437 12.5422C20.3547 13.0715 20.2315 13.5004 20.0674 13.8288C19.9029 14.1573 19.7935 14.3581 19.7387 14.431C19.6839 14.5039 19.6383 14.5498 19.602 14.5678C19.3648 14.6587 19.1181 14.7051 18.8627 14.7051C18.607 14.7051 18.2969 14.5771 17.9319 14.3215C17.5671 14.0659 17.1884 13.7147 16.7959 13.2675C16.4035 12.8202 15.9609 12.1951 15.4679 11.3921C14.9753 10.5891 14.4642 9.64013 13.9349 8.54508L13.497 7.75093C13.2232 7.24003 12.8493 6.49613 12.3747 5.51989C11.8999 4.54326 11.4802 3.59857 11.1153 2.686C10.9695 2.30273 10.7504 2.01094 10.4584 1.81015L10.3214 1.72778C10.2303 1.65491 10.084 1.57752 9.88343 1.49506C9.68255 1.41269 9.47293 1.35362 9.25373 1.31728L1.75246 1.37175C0.985927 1.37175 0.465827 1.5454 0.191969 1.89223L0.0823683 2.05629C0.0276159 2.14768 0 2.29362 0 2.49451C0 2.6953 0.0547524 2.94173 0.164353 3.23352C1.2594 5.80717 2.45024 8.28925 3.73688 10.6801C5.02351 13.071 6.14157 14.9969 7.09039 16.4562C8.0394 17.9165 9.00672 19.2947 9.99236 20.5901C10.978 21.8861 11.6304 22.7166 11.9496 23.0814C12.2692 23.4469 12.5203 23.7202 12.7028 23.9027L13.3873 24.5596C13.8253 24.9977 14.4685 25.5224 15.3173 26.1337C16.1662 26.7454 17.106 27.3476 18.1371 27.9412C19.1685 28.5339 20.3684 29.0176 21.7374 29.3916C23.1062 29.7661 24.4385 29.9164 25.7344 29.8439H28.8828C29.5213 29.7887 30.0051 29.5879 30.3339 29.2414L30.4428 29.1042C30.5161 28.9952 30.5846 28.826 30.6479 28.5983C30.712 28.3701 30.7438 28.1188 30.7438 27.8454C30.7251 27.0608 30.7849 26.3536 30.9214 25.724C31.0578 25.0946 31.2134 24.62 31.3873 24.3004C31.5612 23.9811 31.7574 23.7117 31.9757 23.4933C32.1945 23.2743 32.3504 23.1417 32.4419 23.0961C32.5328 23.0501 32.6054 23.019 32.6601 23.0003C33.0982 22.8543 33.6137 22.9957 34.2074 23.425C34.8007 23.8539 35.3571 24.3835 35.8776 25.0129C36.3978 25.6429 37.0228 26.3497 37.7527 27.1343C38.4831 27.9193 39.1217 28.5028 39.669 28.8866L40.2164 29.2151C40.5819 29.4343 41.0564 29.6351 41.6406 29.8176C42.2237 30 42.7346 30.0456 43.1733 29.9544L50.1815 29.8451C50.8747 29.8451 51.414 29.7303 51.7966 29.5026C52.18 29.2745 52.4077 29.0231 52.4812 28.7498C52.5545 28.4761 52.5584 28.1656 52.4951 27.8185C52.4302 27.4722 52.3662 27.2301 52.3025 27.0933Z" fill="#0288D1"/>
</svg>
