<svg width="54" height="30" viewBox="0 0 54 30" fill="none" xmlns="http://www.w3.org/2000/svg">
<path d="M52.7971 27.0933C52.7334 26.9561 52.6741 26.8423 52.619 26.7511C51.7067 25.108 49.9633 23.0913 47.39 20.7003L47.3356 20.6456L47.3084 20.6187L47.2808 20.5912H47.2532C46.0853 19.4778 45.3457 18.7292 45.036 18.346C44.4693 17.6159 44.3423 16.8768 44.652 16.128C44.8709 15.5623 45.6928 14.3675 47.116 12.5421C47.8646 11.5747 48.4575 10.7993 48.8953 10.2152C52.053 6.01717 53.422 3.33459 53.002 2.16638L52.8389 1.89338C52.7293 1.72903 52.4465 1.57867 51.9907 1.44155C51.5339 1.30472 50.95 1.28209 50.238 1.37328L42.3537 1.42775C42.226 1.38249 42.0436 1.3867 41.806 1.44155C41.5687 1.4964 41.4499 1.52392 41.4499 1.52392L41.3127 1.59248L41.2038 1.67485C41.1125 1.72931 41.0121 1.82511 40.9025 1.96204C40.7935 2.09849 40.7023 2.25862 40.6294 2.4411C39.771 4.64951 38.7951 6.70277 37.6997 8.60079C37.0244 9.73256 36.4042 10.7134 35.8378 11.5439C35.2721 12.3741 34.7976 12.9858 34.4146 13.3779C34.031 13.7703 33.6849 14.0848 33.374 14.3223C33.0636 14.5599 32.8267 14.6603 32.6626 14.6236C32.4982 14.5868 32.3433 14.5504 32.1967 14.514C31.9413 14.3496 31.7359 14.1261 31.5811 13.8432C31.4256 13.5603 31.3208 13.2043 31.2661 12.7754C31.2116 12.3462 31.1794 11.977 31.1702 11.6666C31.1617 11.3566 31.1656 10.9181 31.1841 10.3524C31.2031 9.78636 31.2116 9.40338 31.2116 9.20259C31.2116 8.50893 31.2251 7.75611 31.2523 6.94393C31.2799 6.13175 31.3022 5.48824 31.3209 5.01417C31.3395 4.53962 31.3482 4.03755 31.3482 3.50824C31.3482 2.97894 31.316 2.56383 31.2523 2.26255C31.1894 1.96165 31.0928 1.66958 30.9656 1.38642C30.8376 1.10355 30.6502 0.884728 30.4043 0.729389C30.158 0.574241 29.8517 0.45112 29.4873 0.359642C28.5198 0.140728 27.288 0.022306 25.791 0.00389536C22.3965 -0.0325423 20.2153 0.186659 19.248 0.661211C18.8647 0.861715 18.5179 1.13567 18.2078 1.48221C17.8792 1.88389 17.8333 2.10309 18.0706 2.13914C19.1658 2.30321 19.9412 2.69568 20.3975 3.31618L20.5619 3.64498C20.6899 3.88221 20.8176 4.3022 20.9454 4.90438C21.073 5.50656 21.1554 6.1727 21.1916 6.90241C21.2827 8.23497 21.2827 9.37567 21.1916 10.3246C21.1003 11.2739 21.014 12.0129 20.9316 12.5422C20.8492 13.0715 20.7261 13.5004 20.5619 13.8288C20.3975 14.1573 20.2881 14.3581 20.2332 14.431C20.1785 14.5039 20.1328 14.5498 20.0966 14.5678C19.8594 14.6587 19.6127 14.7051 19.3573 14.7051C19.1016 14.7051 18.7915 14.5771 18.4265 14.3215C18.0617 14.0659 17.683 13.7147 17.2905 13.2675C16.898 12.8202 16.4554 12.1951 15.9625 11.3921C15.4699 10.5891 14.9588 9.64013 14.4295 8.54508L13.9916 7.75093C13.7178 7.24003 13.3438 6.49613 12.8693 5.51989C12.3944 4.54326 11.9747 3.59857 11.6099 2.686C11.464 2.30273 11.2449 2.01094 10.9529 1.81015L10.8159 1.72778C10.7248 1.65491 10.5786 1.57752 10.378 1.49506C10.1771 1.41269 9.9675 1.35362 9.7483 1.31728L2.24703 1.37175C1.48049 1.37175 0.960395 1.5454 0.686537 1.89223L0.576936 2.05629C0.522184 2.14768 0.494568 2.29362 0.494568 2.49451C0.494568 2.6953 0.54932 2.94173 0.658921 3.23352C1.75397 5.80717 2.94481 8.28925 4.23144 10.6801C5.51808 13.071 6.63614 14.9969 7.58496 16.4562C8.53397 17.9165 9.50129 19.2947 10.4869 20.5901C11.4726 21.8861 12.125 22.7166 12.4442 23.0814C12.7638 23.4469 13.0148 23.7202 13.1973 23.9027L13.8819 24.5596C14.3199 24.9977 14.9631 25.5224 15.8118 26.1337C16.6607 26.7454 17.6005 27.3476 18.6317 27.9412C19.6631 28.5339 20.8629 29.0176 22.2319 29.3916C23.6008 29.7661 24.933 29.9164 26.229 29.8439H29.3774C30.0159 29.7887 30.4997 29.5879 30.8285 29.2414L30.9374 29.1042C31.0106 28.9952 31.0792 28.826 31.1425 28.5983C31.2065 28.3701 31.2384 28.1188 31.2384 27.8454C31.2197 27.0608 31.2794 26.3536 31.416 25.724C31.5524 25.0946 31.7079 24.62 31.8819 24.3004C32.0557 23.9811 32.2519 23.7117 32.4703 23.4933C32.6891 23.2743 32.845 23.1417 32.9365 23.0961C33.0274 23.0501 33.1 23.019 33.1547 23.0003C33.5927 22.8543 34.1082 22.9957 34.702 23.425C35.2952 23.8539 35.8517 24.3835 36.3722 25.0129C36.8924 25.6429 37.5174 26.3497 38.2473 27.1343C38.9776 27.9193 39.6163 28.5028 40.1636 28.8866L40.7109 29.2151C41.0765 29.4343 41.551 29.6351 42.1352 29.8176C42.7183 30 43.2292 30.0456 43.6678 29.9544L50.6761 29.8451C51.3692 29.8451 51.9086 29.7303 52.2912 29.5026C52.6746 29.2745 52.9023 29.0231 52.9758 28.7498C53.049 28.4761 53.0529 28.1656 52.9897 27.8185C52.9247 27.4722 52.8608 27.2301 52.7971 27.0933Z" fill="white"/>
</svg>
