<svg width="43" height="31" viewBox="0 0 43 31" fill="none" xmlns="http://www.w3.org/2000/svg">
<path d="M42.071 4.7062C41.576 2.86593 40.1251 1.41527 38.2851 0.91974C34.9237 0 21.4776 0 21.4776 0C21.4776 0 8.032 0 4.67054 0.88487C2.86593 1.37987 1.37961 2.86619 0.884608 4.7062C0 8.06739 0 15.0381 0 15.0381C0 15.0381 0 22.0439 0.884608 25.3699C1.38014 27.2099 2.83054 28.6606 4.6708 29.1561C8.06739 30.0761 21.4781 30.0761 21.4781 30.0761C21.4781 30.0761 34.9237 30.0761 38.2851 29.1913C40.1254 28.696 41.576 27.2453 42.0716 25.4053C42.9559 22.0439 42.9559 15.0735 42.9559 15.0735C42.9559 15.0735 42.9913 8.06739 42.071 4.7062V4.7062ZM17.1966 21.4778V8.59831L28.3777 15.0381L17.1966 21.4778Z" fill="white"/>
</svg>
